M48
;DRILL file {KiCad (5.0.0-rc2-63-gd4393b281)} date 06/11/18 18:19:17
;FORMAT={-:-/ absolute / inch / decimal}
FMAT,2
INCH,TZ
T1C0.0236
T2C0.0315
T3C0.0394
T4C0.0598
T5C0.1260
%
G90
G05
M72
T1
X5.935Y-3.58
X5.935Y-3.63
X5.935Y-3.68
X6.185Y-4.39
X6.185Y-4.44
X6.185Y-4.49
T2
X5.88Y-3.955
X5.88Y-4.1519
X6.115Y-3.695
X6.215Y-3.695
X5.88Y-4.37
X5.98Y-4.37
X6.9131Y-3.81
X7.11Y-3.81
X6.37Y-4.41
X6.37Y-4.51
X5.86Y-4.505
X5.96Y-4.505
X6.115Y-3.555
X6.215Y-3.555
T3
X6.06Y-4.14
X6.16Y-4.14
X6.26Y-4.14
X6.41Y-3.535
X6.41Y-3.635
X6.41Y-3.735
X6.06Y-3.96
X6.16Y-3.96
X6.26Y-3.96
X6.48Y-4.14
X6.58Y-4.14
X6.68Y-4.14
X6.9131Y-4.09
X7.11Y-4.09
X6.48Y-3.96
X6.58Y-3.96
X6.68Y-3.96
T4
X5.65Y-3.95
X5.65Y-4.15
X6.91Y-4.47
X7.11Y-4.47
X6.91Y-3.58
X7.11Y-3.58
T5
X5.65Y-3.6
X6.645Y-4.465
X6.645Y-3.6
X5.645Y-4.465
T0
M30
