G04 #@! TF.GenerationSoftware,KiCad,Pcbnew,(5.0.0-rc2-63-gd4393b281)*
G04 #@! TF.CreationDate,2018-06-11T18:19:14-07:00*
G04 #@! TF.ProjectId,H-THING,482D5448494E472E6B696361645F7063,rev?*
G04 #@! TF.SameCoordinates,Original*
G04 #@! TF.FileFunction,Legend,Top*
G04 #@! TF.FilePolarity,Positive*
%FSLAX46Y46*%
G04 Gerber Fmt 4.6, Leading zero omitted, Abs format (unit mm)*
G04 Created by KiCad (PCBNEW (5.0.0-rc2-63-gd4393b281)) date 06/11/18 18:19:14*
%MOMM*%
%LPD*%
G01*
G04 APERTURE LIST*
%ADD10C,0.300000*%
%ADD11C,0.120000*%
%ADD12C,0.150000*%
G04 APERTURE END LIST*
D10*
X140142542Y-109822371D02*
X140142542Y-108322371D01*
X140642542Y-109393800D01*
X141142542Y-108322371D01*
X141142542Y-109822371D01*
X142142542Y-108322371D02*
X142428257Y-108322371D01*
X142571114Y-108393800D01*
X142713971Y-108536657D01*
X142785400Y-108822371D01*
X142785400Y-109322371D01*
X142713971Y-109608085D01*
X142571114Y-109750942D01*
X142428257Y-109822371D01*
X142142542Y-109822371D01*
X141999685Y-109750942D01*
X141856828Y-109608085D01*
X141785400Y-109322371D01*
X141785400Y-108822371D01*
X141856828Y-108536657D01*
X141999685Y-108393800D01*
X142142542Y-108322371D01*
X143213971Y-108322371D02*
X144071114Y-108322371D01*
X143642542Y-109822371D02*
X143642542Y-108322371D01*
X144856828Y-108322371D02*
X145142542Y-108322371D01*
X145285400Y-108393800D01*
X145428257Y-108536657D01*
X145499685Y-108822371D01*
X145499685Y-109322371D01*
X145428257Y-109608085D01*
X145285400Y-109750942D01*
X145142542Y-109822371D01*
X144856828Y-109822371D01*
X144713971Y-109750942D01*
X144571114Y-109608085D01*
X144499685Y-109322371D01*
X144499685Y-108822371D01*
X144571114Y-108536657D01*
X144713971Y-108393800D01*
X144856828Y-108322371D01*
X146999685Y-109822371D02*
X146499685Y-109108085D01*
X146142542Y-109822371D02*
X146142542Y-108322371D01*
X146713971Y-108322371D01*
X146856828Y-108393800D01*
X146928257Y-108465228D01*
X146999685Y-108608085D01*
X146999685Y-108822371D01*
X146928257Y-108965228D01*
X146856828Y-109036657D01*
X146713971Y-109108085D01*
X146142542Y-109108085D01*
X171132571Y-87864142D02*
X172275428Y-87864142D01*
X171704000Y-88435571D02*
X171704000Y-87292714D01*
X171386571Y-116439142D02*
X172529428Y-116439142D01*
X171958000Y-117010571D02*
X171958000Y-115867714D01*
D11*
G04 #@! TO.C,C1*
X150662000Y-100397000D02*
X150662000Y-105517000D01*
X148042000Y-100397000D02*
X148042000Y-105517000D01*
X150662000Y-100397000D02*
X150348000Y-100397000D01*
X148356000Y-100397000D02*
X148042000Y-100397000D01*
X150662000Y-105517000D02*
X150348000Y-105517000D01*
X148356000Y-105517000D02*
X148042000Y-105517000D01*
G04 #@! TO.C,C2*
X182992437Y-102502736D02*
G75*
G03X173194643Y-102506000I-4898437J-1383264D01*
G01*
X182992437Y-105269264D02*
G75*
G02X173194643Y-105266000I-4898437J1383264D01*
G01*
X182992437Y-105269264D02*
G75*
G03X182993357Y-102506000I-4898437J1383264D01*
G01*
X178094000Y-98836000D02*
X178094000Y-108936000D01*
X178134000Y-98836000D02*
X178134000Y-108936000D01*
X178174000Y-98836000D02*
X178174000Y-108936000D01*
X178214000Y-98837000D02*
X178214000Y-108935000D01*
X178254000Y-98838000D02*
X178254000Y-108934000D01*
X178294000Y-98839000D02*
X178294000Y-108933000D01*
X178334000Y-98841000D02*
X178334000Y-108931000D01*
X178374000Y-98843000D02*
X178374000Y-108929000D01*
X178414000Y-98846000D02*
X178414000Y-108926000D01*
X178454000Y-98848000D02*
X178454000Y-108924000D01*
X178494000Y-98851000D02*
X178494000Y-108921000D01*
X178534000Y-98855000D02*
X178534000Y-108917000D01*
X178574000Y-98858000D02*
X178574000Y-108914000D01*
X178614000Y-98862000D02*
X178614000Y-108910000D01*
X178654000Y-98866000D02*
X178654000Y-108906000D01*
X178694000Y-98871000D02*
X178694000Y-108901000D01*
X178734000Y-98876000D02*
X178734000Y-108896000D01*
X178774000Y-98881000D02*
X178774000Y-108891000D01*
X178815000Y-98887000D02*
X178815000Y-108885000D01*
X178855000Y-98893000D02*
X178855000Y-108879000D01*
X178895000Y-98899000D02*
X178895000Y-108873000D01*
X178935000Y-98905000D02*
X178935000Y-108867000D01*
X178975000Y-98912000D02*
X178975000Y-108860000D01*
X179015000Y-98919000D02*
X179015000Y-108853000D01*
X179055000Y-98927000D02*
X179055000Y-108845000D01*
X179095000Y-98935000D02*
X179095000Y-108837000D01*
X179135000Y-98943000D02*
X179135000Y-108829000D01*
X179175000Y-98951000D02*
X179175000Y-108821000D01*
X179215000Y-98960000D02*
X179215000Y-108812000D01*
X179255000Y-98969000D02*
X179255000Y-108803000D01*
X179295000Y-98979000D02*
X179295000Y-108793000D01*
X179335000Y-98989000D02*
X179335000Y-108783000D01*
X179375000Y-98999000D02*
X179375000Y-108773000D01*
X179415000Y-99010000D02*
X179415000Y-102705000D01*
X179415000Y-105067000D02*
X179415000Y-108762000D01*
X179455000Y-99021000D02*
X179455000Y-102705000D01*
X179455000Y-105067000D02*
X179455000Y-108751000D01*
X179495000Y-99032000D02*
X179495000Y-102705000D01*
X179495000Y-105067000D02*
X179495000Y-108740000D01*
X179535000Y-99043000D02*
X179535000Y-102705000D01*
X179535000Y-105067000D02*
X179535000Y-108729000D01*
X179575000Y-99055000D02*
X179575000Y-102705000D01*
X179575000Y-105067000D02*
X179575000Y-108717000D01*
X179615000Y-99068000D02*
X179615000Y-102705000D01*
X179615000Y-105067000D02*
X179615000Y-108704000D01*
X179655000Y-99080000D02*
X179655000Y-102705000D01*
X179655000Y-105067000D02*
X179655000Y-108692000D01*
X179695000Y-99094000D02*
X179695000Y-102705000D01*
X179695000Y-105067000D02*
X179695000Y-108678000D01*
X179735000Y-99107000D02*
X179735000Y-102705000D01*
X179735000Y-105067000D02*
X179735000Y-108665000D01*
X179775000Y-99121000D02*
X179775000Y-102705000D01*
X179775000Y-105067000D02*
X179775000Y-108651000D01*
X179815000Y-99135000D02*
X179815000Y-102705000D01*
X179815000Y-105067000D02*
X179815000Y-108637000D01*
X179855000Y-99149000D02*
X179855000Y-102705000D01*
X179855000Y-105067000D02*
X179855000Y-108623000D01*
X179895000Y-99164000D02*
X179895000Y-102705000D01*
X179895000Y-105067000D02*
X179895000Y-108608000D01*
X179935000Y-99180000D02*
X179935000Y-102705000D01*
X179935000Y-105067000D02*
X179935000Y-108592000D01*
X179975000Y-99195000D02*
X179975000Y-102705000D01*
X179975000Y-105067000D02*
X179975000Y-108577000D01*
X180015000Y-99212000D02*
X180015000Y-102705000D01*
X180015000Y-105067000D02*
X180015000Y-108560000D01*
X180055000Y-99228000D02*
X180055000Y-102705000D01*
X180055000Y-105067000D02*
X180055000Y-108544000D01*
X180095000Y-99245000D02*
X180095000Y-102705000D01*
X180095000Y-105067000D02*
X180095000Y-108527000D01*
X180135000Y-99262000D02*
X180135000Y-102705000D01*
X180135000Y-105067000D02*
X180135000Y-108510000D01*
X180175000Y-99280000D02*
X180175000Y-102705000D01*
X180175000Y-105067000D02*
X180175000Y-108492000D01*
X180215000Y-99298000D02*
X180215000Y-102705000D01*
X180215000Y-105067000D02*
X180215000Y-108474000D01*
X180255000Y-99317000D02*
X180255000Y-102705000D01*
X180255000Y-105067000D02*
X180255000Y-108455000D01*
X180295000Y-99336000D02*
X180295000Y-102705000D01*
X180295000Y-105067000D02*
X180295000Y-108436000D01*
X180335000Y-99355000D02*
X180335000Y-102705000D01*
X180335000Y-105067000D02*
X180335000Y-108417000D01*
X180375000Y-99375000D02*
X180375000Y-102705000D01*
X180375000Y-105067000D02*
X180375000Y-108397000D01*
X180415000Y-99395000D02*
X180415000Y-102705000D01*
X180415000Y-105067000D02*
X180415000Y-108377000D01*
X180455000Y-99416000D02*
X180455000Y-102705000D01*
X180455000Y-105067000D02*
X180455000Y-108356000D01*
X180495000Y-99437000D02*
X180495000Y-102705000D01*
X180495000Y-105067000D02*
X180495000Y-108335000D01*
X180535000Y-99458000D02*
X180535000Y-102705000D01*
X180535000Y-105067000D02*
X180535000Y-108314000D01*
X180575000Y-99481000D02*
X180575000Y-102705000D01*
X180575000Y-105067000D02*
X180575000Y-108291000D01*
X180615000Y-99503000D02*
X180615000Y-102705000D01*
X180615000Y-105067000D02*
X180615000Y-108269000D01*
X180655000Y-99526000D02*
X180655000Y-102705000D01*
X180655000Y-105067000D02*
X180655000Y-108246000D01*
X180695000Y-99550000D02*
X180695000Y-102705000D01*
X180695000Y-105067000D02*
X180695000Y-108222000D01*
X180735000Y-99574000D02*
X180735000Y-102705000D01*
X180735000Y-105067000D02*
X180735000Y-108198000D01*
X180775000Y-99598000D02*
X180775000Y-102705000D01*
X180775000Y-105067000D02*
X180775000Y-108174000D01*
X180815000Y-99623000D02*
X180815000Y-102705000D01*
X180815000Y-105067000D02*
X180815000Y-108149000D01*
X180855000Y-99649000D02*
X180855000Y-102705000D01*
X180855000Y-105067000D02*
X180855000Y-108123000D01*
X180895000Y-99675000D02*
X180895000Y-102705000D01*
X180895000Y-105067000D02*
X180895000Y-108097000D01*
X180935000Y-99701000D02*
X180935000Y-102705000D01*
X180935000Y-105067000D02*
X180935000Y-108071000D01*
X180975000Y-99729000D02*
X180975000Y-102705000D01*
X180975000Y-105067000D02*
X180975000Y-108043000D01*
X181015000Y-99756000D02*
X181015000Y-102705000D01*
X181015000Y-105067000D02*
X181015000Y-108016000D01*
X181055000Y-99785000D02*
X181055000Y-102705000D01*
X181055000Y-105067000D02*
X181055000Y-107987000D01*
X181095000Y-99814000D02*
X181095000Y-102705000D01*
X181095000Y-105067000D02*
X181095000Y-107958000D01*
X181135000Y-99843000D02*
X181135000Y-102705000D01*
X181135000Y-105067000D02*
X181135000Y-107929000D01*
X181175000Y-99873000D02*
X181175000Y-102705000D01*
X181175000Y-105067000D02*
X181175000Y-107899000D01*
X181215000Y-99904000D02*
X181215000Y-102705000D01*
X181215000Y-105067000D02*
X181215000Y-107868000D01*
X181255000Y-99935000D02*
X181255000Y-102705000D01*
X181255000Y-105067000D02*
X181255000Y-107837000D01*
X181295000Y-99967000D02*
X181295000Y-102705000D01*
X181295000Y-105067000D02*
X181295000Y-107805000D01*
X181335000Y-100000000D02*
X181335000Y-102705000D01*
X181335000Y-105067000D02*
X181335000Y-107772000D01*
X181375000Y-100033000D02*
X181375000Y-102705000D01*
X181375000Y-105067000D02*
X181375000Y-107739000D01*
X181415000Y-100067000D02*
X181415000Y-102705000D01*
X181415000Y-105067000D02*
X181415000Y-107705000D01*
X181455000Y-100102000D02*
X181455000Y-102705000D01*
X181455000Y-105067000D02*
X181455000Y-107670000D01*
X181495000Y-100138000D02*
X181495000Y-102705000D01*
X181495000Y-105067000D02*
X181495000Y-107634000D01*
X181535000Y-100174000D02*
X181535000Y-102705000D01*
X181535000Y-105067000D02*
X181535000Y-107598000D01*
X181575000Y-100211000D02*
X181575000Y-102705000D01*
X181575000Y-105067000D02*
X181575000Y-107561000D01*
X181615000Y-100249000D02*
X181615000Y-102705000D01*
X181615000Y-105067000D02*
X181615000Y-107523000D01*
X181655000Y-100288000D02*
X181655000Y-102705000D01*
X181655000Y-105067000D02*
X181655000Y-107484000D01*
X181695000Y-100327000D02*
X181695000Y-102705000D01*
X181695000Y-105067000D02*
X181695000Y-107445000D01*
X181735000Y-100368000D02*
X181735000Y-102705000D01*
X181735000Y-105067000D02*
X181735000Y-107404000D01*
X181775000Y-100409000D02*
X181775000Y-107363000D01*
X181815000Y-100451000D02*
X181815000Y-107321000D01*
X181855000Y-100495000D02*
X181855000Y-107277000D01*
X181895000Y-100539000D02*
X181895000Y-107233000D01*
X181935000Y-100584000D02*
X181935000Y-107188000D01*
X181975000Y-100631000D02*
X181975000Y-107141000D01*
X182015000Y-100679000D02*
X182015000Y-107093000D01*
X182055000Y-100728000D02*
X182055000Y-107044000D01*
X182095000Y-100778000D02*
X182095000Y-106994000D01*
X182135000Y-100829000D02*
X182135000Y-106943000D01*
X182175000Y-100882000D02*
X182175000Y-106890000D01*
X182215000Y-100937000D02*
X182215000Y-106835000D01*
X182255000Y-100992000D02*
X182255000Y-106780000D01*
X182295000Y-101050000D02*
X182295000Y-106722000D01*
X182335000Y-101109000D02*
X182335000Y-106663000D01*
X182375000Y-101171000D02*
X182375000Y-106601000D01*
X182415000Y-101234000D02*
X182415000Y-106538000D01*
X182455000Y-101299000D02*
X182455000Y-106473000D01*
X182495000Y-101367000D02*
X182495000Y-106405000D01*
X182535000Y-101437000D02*
X182535000Y-106335000D01*
X182575000Y-101509000D02*
X182575000Y-106263000D01*
X182615000Y-101585000D02*
X182615000Y-106187000D01*
X182655000Y-101664000D02*
X182655000Y-106108000D01*
X182695000Y-101746000D02*
X182695000Y-106026000D01*
X182735000Y-101833000D02*
X182735000Y-105939000D01*
X182775000Y-101924000D02*
X182775000Y-105848000D01*
X182815000Y-102020000D02*
X182815000Y-105752000D01*
X182855000Y-102123000D02*
X182855000Y-105649000D01*
X182895000Y-102232000D02*
X182895000Y-105540000D01*
X182935000Y-102350000D02*
X182935000Y-105422000D01*
X182975000Y-102479000D02*
X182975000Y-105293000D01*
X183015000Y-102621000D02*
X183015000Y-105151000D01*
X183055000Y-102782000D02*
X183055000Y-104990000D01*
X183095000Y-102973000D02*
X183095000Y-104799000D01*
X183135000Y-103214000D02*
X183135000Y-104558000D01*
X183175000Y-103607000D02*
X183175000Y-104165000D01*
X172894000Y-103886000D02*
X174394000Y-103886000D01*
X173644000Y-103136000D02*
X173644000Y-104636000D01*
G04 #@! TO.C,C3*
X175534000Y-95464000D02*
X180654000Y-95464000D01*
X175534000Y-98084000D02*
X180654000Y-98084000D01*
X175534000Y-95464000D02*
X175534000Y-95778000D01*
X175534000Y-97770000D02*
X175534000Y-98084000D01*
X180654000Y-95464000D02*
X180654000Y-95778000D01*
X180654000Y-97770000D02*
X180654000Y-98084000D01*
G04 #@! TO.C,J1*
X140970000Y-107950000D02*
X140970000Y-97790000D01*
X139700000Y-107950000D02*
X147320000Y-107950000D01*
X147320000Y-107950000D02*
X147320000Y-97790000D01*
X147320000Y-97790000D02*
X139700000Y-97790000D01*
X139700000Y-97790000D02*
X139700000Y-107950000D01*
G04 #@! TO.C,J2*
X172974000Y-88392000D02*
X183134000Y-88392000D01*
X172974000Y-87122000D02*
X172974000Y-94742000D01*
X172974000Y-94742000D02*
X183134000Y-94742000D01*
X183134000Y-94742000D02*
X183134000Y-87122000D01*
X183134000Y-87122000D02*
X172974000Y-87122000D01*
G04 #@! TO.C,J3*
X183134000Y-116078000D02*
X172974000Y-116078000D01*
X183134000Y-117348000D02*
X183134000Y-109728000D01*
X183134000Y-109728000D02*
X172974000Y-109728000D01*
X172974000Y-109728000D02*
X172974000Y-117348000D01*
X172974000Y-117348000D02*
X183134000Y-117348000D01*
G04 #@! TO.C,Q1*
X158949000Y-114576000D02*
X158949000Y-110976000D01*
X158937478Y-114614478D02*
G75*
G02X154499000Y-112776000I-1838478J1838478D01*
G01*
X158937478Y-110937522D02*
G75*
G03X154499000Y-112776000I-1838478J-1838478D01*
G01*
G04 #@! TO.C,Q6*
X148899000Y-90402000D02*
X148899000Y-94002000D01*
X148910522Y-90363522D02*
G75*
G02X153349000Y-92202000I1838478J-1838478D01*
G01*
X148910522Y-94040478D02*
G75*
G03X153349000Y-92202000I1838478J1838478D01*
G01*
G04 #@! TO.C,R1*
X152694000Y-114427000D02*
G75*
G03X152694000Y-114427000I-1310000J0D01*
G01*
X150074000Y-114427000D02*
X149944000Y-114427000D01*
G04 #@! TO.C,R2*
X150662000Y-110998000D02*
G75*
G03X150662000Y-110998000I-1310000J0D01*
G01*
X150662000Y-110998000D02*
X150792000Y-110998000D01*
G04 #@! TO.C,R4*
X159171000Y-93853000D02*
G75*
G03X159171000Y-93853000I-1310000J0D01*
G01*
X156551000Y-93853000D02*
X156421000Y-93853000D01*
G04 #@! TO.C,R5*
X159171000Y-90297000D02*
G75*
G03X159171000Y-90297000I-1310000J0D01*
G01*
X156551000Y-90297000D02*
X156421000Y-90297000D01*
G04 #@! TO.C,J4*
X161484000Y-91059000D02*
X161484000Y-96199000D01*
X161484000Y-96199000D02*
X164144000Y-96199000D01*
X164144000Y-96199000D02*
X164144000Y-91059000D01*
X164144000Y-91059000D02*
X161484000Y-91059000D01*
X161484000Y-89789000D02*
X161484000Y-88459000D01*
X161484000Y-88459000D02*
X162814000Y-88459000D01*
G04 #@! TO.C,Q2*
X161584000Y-107776000D02*
X151344000Y-107776000D01*
X161584000Y-103135000D02*
X151344000Y-103135000D01*
X161584000Y-107776000D02*
X161584000Y-103135000D01*
X151344000Y-107776000D02*
X151344000Y-103135000D01*
X161584000Y-106266000D02*
X151344000Y-106266000D01*
X158314000Y-107776000D02*
X158314000Y-106266000D01*
X154613000Y-107776000D02*
X154613000Y-106266000D01*
G04 #@! TO.C,Q3*
X172252000Y-107776000D02*
X162012000Y-107776000D01*
X172252000Y-103135000D02*
X162012000Y-103135000D01*
X172252000Y-107776000D02*
X172252000Y-103135000D01*
X162012000Y-107776000D02*
X162012000Y-103135000D01*
X172252000Y-106266000D02*
X162012000Y-106266000D01*
X168982000Y-107776000D02*
X168982000Y-106266000D01*
X165281000Y-107776000D02*
X165281000Y-106266000D01*
G04 #@! TO.C,Q4*
X151344000Y-97964000D02*
X161584000Y-97964000D01*
X151344000Y-102605000D02*
X161584000Y-102605000D01*
X151344000Y-97964000D02*
X151344000Y-102605000D01*
X161584000Y-97964000D02*
X161584000Y-102605000D01*
X151344000Y-99474000D02*
X161584000Y-99474000D01*
X154614000Y-97964000D02*
X154614000Y-99474000D01*
X158315000Y-97964000D02*
X158315000Y-99474000D01*
G04 #@! TO.C,Q5*
X162012000Y-97964000D02*
X172252000Y-97964000D01*
X162012000Y-102605000D02*
X172252000Y-102605000D01*
X162012000Y-97964000D02*
X162012000Y-102605000D01*
X172252000Y-97964000D02*
X172252000Y-102605000D01*
X162012000Y-99474000D02*
X172252000Y-99474000D01*
X165282000Y-97964000D02*
X165282000Y-99474000D01*
X168983000Y-97964000D02*
X168983000Y-99474000D01*
G04 #@! TO.C,R6*
X163108000Y-112014000D02*
G75*
G03X163108000Y-112014000I-1310000J0D01*
G01*
X161798000Y-113324000D02*
X161798000Y-113454000D01*
G04 #@! TO.C,C1*
D12*
X149185333Y-98909142D02*
X149137714Y-98956761D01*
X148994857Y-99004380D01*
X148899619Y-99004380D01*
X148756761Y-98956761D01*
X148661523Y-98861523D01*
X148613904Y-98766285D01*
X148566285Y-98575809D01*
X148566285Y-98432952D01*
X148613904Y-98242476D01*
X148661523Y-98147238D01*
X148756761Y-98052000D01*
X148899619Y-98004380D01*
X148994857Y-98004380D01*
X149137714Y-98052000D01*
X149185333Y-98099619D01*
X150137714Y-99004380D02*
X149566285Y-99004380D01*
X149852000Y-99004380D02*
X149852000Y-98004380D01*
X149756761Y-98147238D01*
X149661523Y-98242476D01*
X149566285Y-98290095D01*
G04 #@! TO.C,C2*
X173569333Y-108815142D02*
X173521714Y-108862761D01*
X173378857Y-108910380D01*
X173283619Y-108910380D01*
X173140761Y-108862761D01*
X173045523Y-108767523D01*
X172997904Y-108672285D01*
X172950285Y-108481809D01*
X172950285Y-108338952D01*
X172997904Y-108148476D01*
X173045523Y-108053238D01*
X173140761Y-107958000D01*
X173283619Y-107910380D01*
X173378857Y-107910380D01*
X173521714Y-107958000D01*
X173569333Y-108005619D01*
X173950285Y-108005619D02*
X173997904Y-107958000D01*
X174093142Y-107910380D01*
X174331238Y-107910380D01*
X174426476Y-107958000D01*
X174474095Y-108005619D01*
X174521714Y-108100857D01*
X174521714Y-108196095D01*
X174474095Y-108338952D01*
X173902666Y-108910380D01*
X174521714Y-108910380D01*
G04 #@! TO.C,C3*
X173188333Y-97131142D02*
X173140714Y-97178761D01*
X172997857Y-97226380D01*
X172902619Y-97226380D01*
X172759761Y-97178761D01*
X172664523Y-97083523D01*
X172616904Y-96988285D01*
X172569285Y-96797809D01*
X172569285Y-96654952D01*
X172616904Y-96464476D01*
X172664523Y-96369238D01*
X172759761Y-96274000D01*
X172902619Y-96226380D01*
X172997857Y-96226380D01*
X173140714Y-96274000D01*
X173188333Y-96321619D01*
X173521666Y-96226380D02*
X174140714Y-96226380D01*
X173807380Y-96607333D01*
X173950238Y-96607333D01*
X174045476Y-96654952D01*
X174093095Y-96702571D01*
X174140714Y-96797809D01*
X174140714Y-97035904D01*
X174093095Y-97131142D01*
X174045476Y-97178761D01*
X173950238Y-97226380D01*
X173664523Y-97226380D01*
X173569285Y-97178761D01*
X173521666Y-97131142D01*
G04 #@! TO.C,J1*
X143176666Y-96480380D02*
X143176666Y-97194666D01*
X143129047Y-97337523D01*
X143033809Y-97432761D01*
X142890952Y-97480380D01*
X142795714Y-97480380D01*
X144176666Y-97480380D02*
X143605238Y-97480380D01*
X143890952Y-97480380D02*
X143890952Y-96480380D01*
X143795714Y-96623238D01*
X143700476Y-96718476D01*
X143605238Y-96766095D01*
G04 #@! TO.C,J2*
X177720666Y-93178380D02*
X177720666Y-93892666D01*
X177673047Y-94035523D01*
X177577809Y-94130761D01*
X177434952Y-94178380D01*
X177339714Y-94178380D01*
X178149238Y-93273619D02*
X178196857Y-93226000D01*
X178292095Y-93178380D01*
X178530190Y-93178380D01*
X178625428Y-93226000D01*
X178673047Y-93273619D01*
X178720666Y-93368857D01*
X178720666Y-93464095D01*
X178673047Y-93606952D01*
X178101619Y-94178380D01*
X178720666Y-94178380D01*
G04 #@! TO.C,J3*
X177974666Y-110450380D02*
X177974666Y-111164666D01*
X177927047Y-111307523D01*
X177831809Y-111402761D01*
X177688952Y-111450380D01*
X177593714Y-111450380D01*
X178355619Y-110450380D02*
X178974666Y-110450380D01*
X178641333Y-110831333D01*
X178784190Y-110831333D01*
X178879428Y-110878952D01*
X178927047Y-110926571D01*
X178974666Y-111021809D01*
X178974666Y-111259904D01*
X178927047Y-111355142D01*
X178879428Y-111402761D01*
X178784190Y-111450380D01*
X178498476Y-111450380D01*
X178403238Y-111402761D01*
X178355619Y-111355142D01*
G04 #@! TO.C,Q1*
X156749761Y-116752619D02*
X156654523Y-116705000D01*
X156559285Y-116609761D01*
X156416428Y-116466904D01*
X156321190Y-116419285D01*
X156225952Y-116419285D01*
X156273571Y-116657380D02*
X156178333Y-116609761D01*
X156083095Y-116514523D01*
X156035476Y-116324047D01*
X156035476Y-115990714D01*
X156083095Y-115800238D01*
X156178333Y-115705000D01*
X156273571Y-115657380D01*
X156464047Y-115657380D01*
X156559285Y-115705000D01*
X156654523Y-115800238D01*
X156702142Y-115990714D01*
X156702142Y-116324047D01*
X156654523Y-116514523D01*
X156559285Y-116609761D01*
X156464047Y-116657380D01*
X156273571Y-116657380D01*
X157654523Y-116657380D02*
X157083095Y-116657380D01*
X157368809Y-116657380D02*
X157368809Y-115657380D01*
X157273571Y-115800238D01*
X157178333Y-115895476D01*
X157083095Y-115943095D01*
G04 #@! TO.C,Q6*
X150780761Y-96178619D02*
X150685523Y-96131000D01*
X150590285Y-96035761D01*
X150447428Y-95892904D01*
X150352190Y-95845285D01*
X150256952Y-95845285D01*
X150304571Y-96083380D02*
X150209333Y-96035761D01*
X150114095Y-95940523D01*
X150066476Y-95750047D01*
X150066476Y-95416714D01*
X150114095Y-95226238D01*
X150209333Y-95131000D01*
X150304571Y-95083380D01*
X150495047Y-95083380D01*
X150590285Y-95131000D01*
X150685523Y-95226238D01*
X150733142Y-95416714D01*
X150733142Y-95750047D01*
X150685523Y-95940523D01*
X150590285Y-96035761D01*
X150495047Y-96083380D01*
X150304571Y-96083380D01*
X151590285Y-95083380D02*
X151399809Y-95083380D01*
X151304571Y-95131000D01*
X151256952Y-95178619D01*
X151161714Y-95321476D01*
X151114095Y-95511952D01*
X151114095Y-95892904D01*
X151161714Y-95988142D01*
X151209333Y-96035761D01*
X151304571Y-96083380D01*
X151495047Y-96083380D01*
X151590285Y-96035761D01*
X151637904Y-95988142D01*
X151685523Y-95892904D01*
X151685523Y-95654809D01*
X151637904Y-95559571D01*
X151590285Y-95511952D01*
X151495047Y-95464333D01*
X151304571Y-95464333D01*
X151209333Y-95511952D01*
X151161714Y-95559571D01*
X151114095Y-95654809D01*
G04 #@! TO.C,R1*
X149947333Y-117189380D02*
X149614000Y-116713190D01*
X149375904Y-117189380D02*
X149375904Y-116189380D01*
X149756857Y-116189380D01*
X149852095Y-116237000D01*
X149899714Y-116284619D01*
X149947333Y-116379857D01*
X149947333Y-116522714D01*
X149899714Y-116617952D01*
X149852095Y-116665571D01*
X149756857Y-116713190D01*
X149375904Y-116713190D01*
X150899714Y-117189380D02*
X150328285Y-117189380D01*
X150614000Y-117189380D02*
X150614000Y-116189380D01*
X150518761Y-116332238D01*
X150423523Y-116427476D01*
X150328285Y-116475095D01*
G04 #@! TO.C,R2*
X150455333Y-109140380D02*
X150122000Y-108664190D01*
X149883904Y-109140380D02*
X149883904Y-108140380D01*
X150264857Y-108140380D01*
X150360095Y-108188000D01*
X150407714Y-108235619D01*
X150455333Y-108330857D01*
X150455333Y-108473714D01*
X150407714Y-108568952D01*
X150360095Y-108616571D01*
X150264857Y-108664190D01*
X149883904Y-108664190D01*
X150836285Y-108235619D02*
X150883904Y-108188000D01*
X150979142Y-108140380D01*
X151217238Y-108140380D01*
X151312476Y-108188000D01*
X151360095Y-108235619D01*
X151407714Y-108330857D01*
X151407714Y-108426095D01*
X151360095Y-108568952D01*
X150788666Y-109140380D01*
X151407714Y-109140380D01*
G04 #@! TO.C,R4*
X155916333Y-96083380D02*
X155583000Y-95607190D01*
X155344904Y-96083380D02*
X155344904Y-95083380D01*
X155725857Y-95083380D01*
X155821095Y-95131000D01*
X155868714Y-95178619D01*
X155916333Y-95273857D01*
X155916333Y-95416714D01*
X155868714Y-95511952D01*
X155821095Y-95559571D01*
X155725857Y-95607190D01*
X155344904Y-95607190D01*
X156773476Y-95416714D02*
X156773476Y-96083380D01*
X156535380Y-95035761D02*
X156297285Y-95750047D01*
X156916333Y-95750047D01*
G04 #@! TO.C,R5*
X155662333Y-89098380D02*
X155329000Y-88622190D01*
X155090904Y-89098380D02*
X155090904Y-88098380D01*
X155471857Y-88098380D01*
X155567095Y-88146000D01*
X155614714Y-88193619D01*
X155662333Y-88288857D01*
X155662333Y-88431714D01*
X155614714Y-88526952D01*
X155567095Y-88574571D01*
X155471857Y-88622190D01*
X155090904Y-88622190D01*
X156567095Y-88098380D02*
X156090904Y-88098380D01*
X156043285Y-88574571D01*
X156090904Y-88526952D01*
X156186142Y-88479333D01*
X156424238Y-88479333D01*
X156519476Y-88526952D01*
X156567095Y-88574571D01*
X156614714Y-88669809D01*
X156614714Y-88907904D01*
X156567095Y-89003142D01*
X156519476Y-89050761D01*
X156424238Y-89098380D01*
X156186142Y-89098380D01*
X156090904Y-89050761D01*
X156043285Y-89003142D01*
G04 #@! TO.C,J4*
X160067666Y-91781380D02*
X160067666Y-92495666D01*
X160020047Y-92638523D01*
X159924809Y-92733761D01*
X159781952Y-92781380D01*
X159686714Y-92781380D01*
X160972428Y-92114714D02*
X160972428Y-92781380D01*
X160734333Y-91733761D02*
X160496238Y-92448047D01*
X161115285Y-92448047D01*
G04 #@! TO.C,Q2*
X156368761Y-109323619D02*
X156273523Y-109276000D01*
X156178285Y-109180761D01*
X156035428Y-109037904D01*
X155940190Y-108990285D01*
X155844952Y-108990285D01*
X155892571Y-109228380D02*
X155797333Y-109180761D01*
X155702095Y-109085523D01*
X155654476Y-108895047D01*
X155654476Y-108561714D01*
X155702095Y-108371238D01*
X155797333Y-108276000D01*
X155892571Y-108228380D01*
X156083047Y-108228380D01*
X156178285Y-108276000D01*
X156273523Y-108371238D01*
X156321142Y-108561714D01*
X156321142Y-108895047D01*
X156273523Y-109085523D01*
X156178285Y-109180761D01*
X156083047Y-109228380D01*
X155892571Y-109228380D01*
X156702095Y-108323619D02*
X156749714Y-108276000D01*
X156844952Y-108228380D01*
X157083047Y-108228380D01*
X157178285Y-108276000D01*
X157225904Y-108323619D01*
X157273523Y-108418857D01*
X157273523Y-108514095D01*
X157225904Y-108656952D01*
X156654476Y-109228380D01*
X157273523Y-109228380D01*
G04 #@! TO.C,Q3*
X167036761Y-109323619D02*
X166941523Y-109276000D01*
X166846285Y-109180761D01*
X166703428Y-109037904D01*
X166608190Y-108990285D01*
X166512952Y-108990285D01*
X166560571Y-109228380D02*
X166465333Y-109180761D01*
X166370095Y-109085523D01*
X166322476Y-108895047D01*
X166322476Y-108561714D01*
X166370095Y-108371238D01*
X166465333Y-108276000D01*
X166560571Y-108228380D01*
X166751047Y-108228380D01*
X166846285Y-108276000D01*
X166941523Y-108371238D01*
X166989142Y-108561714D01*
X166989142Y-108895047D01*
X166941523Y-109085523D01*
X166846285Y-109180761D01*
X166751047Y-109228380D01*
X166560571Y-109228380D01*
X167322476Y-108228380D02*
X167941523Y-108228380D01*
X167608190Y-108609333D01*
X167751047Y-108609333D01*
X167846285Y-108656952D01*
X167893904Y-108704571D01*
X167941523Y-108799809D01*
X167941523Y-109037904D01*
X167893904Y-109133142D01*
X167846285Y-109180761D01*
X167751047Y-109228380D01*
X167465333Y-109228380D01*
X167370095Y-109180761D01*
X167322476Y-109133142D01*
G04 #@! TO.C,Q4*
X156368761Y-97511619D02*
X156273523Y-97464000D01*
X156178285Y-97368761D01*
X156035428Y-97225904D01*
X155940190Y-97178285D01*
X155844952Y-97178285D01*
X155892571Y-97416380D02*
X155797333Y-97368761D01*
X155702095Y-97273523D01*
X155654476Y-97083047D01*
X155654476Y-96749714D01*
X155702095Y-96559238D01*
X155797333Y-96464000D01*
X155892571Y-96416380D01*
X156083047Y-96416380D01*
X156178285Y-96464000D01*
X156273523Y-96559238D01*
X156321142Y-96749714D01*
X156321142Y-97083047D01*
X156273523Y-97273523D01*
X156178285Y-97368761D01*
X156083047Y-97416380D01*
X155892571Y-97416380D01*
X157178285Y-96749714D02*
X157178285Y-97416380D01*
X156940190Y-96368761D02*
X156702095Y-97083047D01*
X157321142Y-97083047D01*
G04 #@! TO.C,Q5*
X167036761Y-97511619D02*
X166941523Y-97464000D01*
X166846285Y-97368761D01*
X166703428Y-97225904D01*
X166608190Y-97178285D01*
X166512952Y-97178285D01*
X166560571Y-97416380D02*
X166465333Y-97368761D01*
X166370095Y-97273523D01*
X166322476Y-97083047D01*
X166322476Y-96749714D01*
X166370095Y-96559238D01*
X166465333Y-96464000D01*
X166560571Y-96416380D01*
X166751047Y-96416380D01*
X166846285Y-96464000D01*
X166941523Y-96559238D01*
X166989142Y-96749714D01*
X166989142Y-97083047D01*
X166941523Y-97273523D01*
X166846285Y-97368761D01*
X166751047Y-97416380D01*
X166560571Y-97416380D01*
X167893904Y-96416380D02*
X167417714Y-96416380D01*
X167370095Y-96892571D01*
X167417714Y-96844952D01*
X167512952Y-96797333D01*
X167751047Y-96797333D01*
X167846285Y-96844952D01*
X167893904Y-96892571D01*
X167941523Y-96987809D01*
X167941523Y-97225904D01*
X167893904Y-97321142D01*
X167846285Y-97368761D01*
X167751047Y-97416380D01*
X167512952Y-97416380D01*
X167417714Y-97368761D01*
X167370095Y-97321142D01*
G04 #@! TO.C,R6*
X161631333Y-116911380D02*
X161298000Y-116435190D01*
X161059904Y-116911380D02*
X161059904Y-115911380D01*
X161440857Y-115911380D01*
X161536095Y-115959000D01*
X161583714Y-116006619D01*
X161631333Y-116101857D01*
X161631333Y-116244714D01*
X161583714Y-116339952D01*
X161536095Y-116387571D01*
X161440857Y-116435190D01*
X161059904Y-116435190D01*
X162488476Y-115911380D02*
X162298000Y-115911380D01*
X162202761Y-115959000D01*
X162155142Y-116006619D01*
X162059904Y-116149476D01*
X162012285Y-116339952D01*
X162012285Y-116720904D01*
X162059904Y-116816142D01*
X162107523Y-116863761D01*
X162202761Y-116911380D01*
X162393238Y-116911380D01*
X162488476Y-116863761D01*
X162536095Y-116816142D01*
X162583714Y-116720904D01*
X162583714Y-116482809D01*
X162536095Y-116387571D01*
X162488476Y-116339952D01*
X162393238Y-116292333D01*
X162202761Y-116292333D01*
X162107523Y-116339952D01*
X162059904Y-116387571D01*
X162012285Y-116482809D01*
G04 #@! TD*
M02*
