G04 #@! TF.GenerationSoftware,KiCad,Pcbnew,(5.0.0-rc2-63-gd4393b281)*
G04 #@! TF.CreationDate,2018-06-11T18:19:14-07:00*
G04 #@! TF.ProjectId,H-THING,482D5448494E472E6B696361645F7063,rev?*
G04 #@! TF.SameCoordinates,Original*
G04 #@! TF.FileFunction,Copper,L1,Top,Signal*
G04 #@! TF.FilePolarity,Positive*
%FSLAX46Y46*%
G04 Gerber Fmt 4.6, Leading zero omitted, Abs format (unit mm)*
G04 Created by KiCad (PCBNEW (5.0.0-rc2-63-gd4393b281)) date 06/11/18 18:19:14*
%MOMM*%
%LPD*%
G01*
G04 APERTURE LIST*
G04 #@! TA.AperFunction,ComponentPad*
%ADD10C,1.600000*%
G04 #@! TD*
G04 #@! TA.AperFunction,ComponentPad*
%ADD11R,2.000000X2.000000*%
G04 #@! TD*
G04 #@! TA.AperFunction,ComponentPad*
%ADD12C,2.000000*%
G04 #@! TD*
G04 #@! TA.AperFunction,ComponentPad*
%ADD13R,3.000000X3.000000*%
G04 #@! TD*
G04 #@! TA.AperFunction,ComponentPad*
%ADD14C,3.000000*%
G04 #@! TD*
G04 #@! TA.AperFunction,ComponentPad*
%ADD15O,1.500000X0.900000*%
G04 #@! TD*
G04 #@! TA.AperFunction,ComponentPad*
%ADD16R,1.500000X0.900000*%
G04 #@! TD*
G04 #@! TA.AperFunction,ComponentPad*
%ADD17O,1.600000X1.600000*%
G04 #@! TD*
G04 #@! TA.AperFunction,ComponentPad*
%ADD18R,1.700000X1.700000*%
G04 #@! TD*
G04 #@! TA.AperFunction,ComponentPad*
%ADD19O,1.700000X1.700000*%
G04 #@! TD*
G04 #@! TA.AperFunction,ComponentPad*
%ADD20R,1.800000X1.800000*%
G04 #@! TD*
G04 #@! TA.AperFunction,ComponentPad*
%ADD21O,1.800000X1.800000*%
G04 #@! TD*
G04 #@! TA.AperFunction,Conductor*
%ADD22C,3.000000*%
G04 #@! TD*
G04 #@! TA.AperFunction,Conductor*
%ADD23C,1.500000*%
G04 #@! TD*
G04 #@! TA.AperFunction,Conductor*
%ADD24C,0.500000*%
G04 #@! TD*
G04 #@! TA.AperFunction,Conductor*
%ADD25C,1.000000*%
G04 #@! TD*
G04 #@! TA.AperFunction,Conductor*
%ADD26C,0.254000*%
G04 #@! TD*
G04 APERTURE END LIST*
D10*
G04 #@! TO.P,C1,1*
G04 #@! TO.N,Net-(C1-Pad1)*
X149352000Y-100457000D03*
G04 #@! TO.P,C1,2*
G04 #@! TO.N,Net-(C1-Pad2)*
X149352000Y-105457000D03*
G04 #@! TD*
D11*
G04 #@! TO.P,C2,1*
G04 #@! TO.N,VCC*
X175594000Y-103886000D03*
D12*
G04 #@! TO.P,C2,2*
G04 #@! TO.N,GND*
X180594000Y-103886000D03*
G04 #@! TD*
D10*
G04 #@! TO.P,C3,1*
G04 #@! TO.N,VCC*
X175594000Y-96774000D03*
G04 #@! TO.P,C3,2*
G04 #@! TO.N,GND*
X180594000Y-96774000D03*
G04 #@! TD*
D13*
G04 #@! TO.P,J1,1*
G04 #@! TO.N,Net-(C1-Pad1)*
X143510000Y-100330000D03*
D14*
G04 #@! TO.P,J1,2*
G04 #@! TO.N,Net-(C1-Pad2)*
X143510000Y-105410000D03*
G04 #@! TD*
D13*
G04 #@! TO.P,J2,1*
G04 #@! TO.N,GND*
X180594000Y-90932000D03*
D14*
G04 #@! TO.P,J2,2*
G04 #@! TO.N,VCC*
X175514000Y-90932000D03*
G04 #@! TD*
D13*
G04 #@! TO.P,J3,1*
G04 #@! TO.N,VCC*
X175514000Y-113538000D03*
D14*
G04 #@! TO.P,J3,2*
G04 #@! TO.N,GND*
X180594000Y-113538000D03*
G04 #@! TD*
D15*
G04 #@! TO.P,Q1,2*
G04 #@! TO.N,Net-(Q1-Pad2)*
X157099000Y-112776000D03*
G04 #@! TO.P,Q1,3*
G04 #@! TO.N,Net-(Q1-Pad3)*
X157099000Y-111506000D03*
D16*
G04 #@! TO.P,Q1,1*
G04 #@! TO.N,GND*
X157099000Y-114046000D03*
G04 #@! TD*
D15*
G04 #@! TO.P,Q6,2*
G04 #@! TO.N,Net-(Q6-Pad2)*
X150749000Y-92202000D03*
G04 #@! TO.P,Q6,3*
G04 #@! TO.N,Net-(Q4-Pad1)*
X150749000Y-93472000D03*
D16*
G04 #@! TO.P,Q6,1*
G04 #@! TO.N,GND*
X150749000Y-90932000D03*
G04 #@! TD*
D10*
G04 #@! TO.P,R1,1*
G04 #@! TO.N,Net-(Q1-Pad2)*
X151384000Y-114427000D03*
D17*
G04 #@! TO.P,R1,2*
G04 #@! TO.N,/HB1*
X148844000Y-114427000D03*
G04 #@! TD*
D10*
G04 #@! TO.P,R2,1*
G04 #@! TO.N,VCC*
X149352000Y-110998000D03*
D17*
G04 #@! TO.P,R2,2*
G04 #@! TO.N,Net-(Q1-Pad3)*
X151892000Y-110998000D03*
G04 #@! TD*
D10*
G04 #@! TO.P,R4,1*
G04 #@! TO.N,VCC*
X157861000Y-93853000D03*
D17*
G04 #@! TO.P,R4,2*
G04 #@! TO.N,Net-(Q4-Pad1)*
X155321000Y-93853000D03*
G04 #@! TD*
D10*
G04 #@! TO.P,R5,1*
G04 #@! TO.N,/HB2*
X157861000Y-90297000D03*
D17*
G04 #@! TO.P,R5,2*
G04 #@! TO.N,Net-(Q6-Pad2)*
X155321000Y-90297000D03*
G04 #@! TD*
D18*
G04 #@! TO.P,J4,1*
G04 #@! TO.N,/HB1*
X162814000Y-89789000D03*
D19*
G04 #@! TO.P,J4,2*
G04 #@! TO.N,/I_SENSE*
X162814000Y-92329000D03*
G04 #@! TO.P,J4,3*
G04 #@! TO.N,/HB2*
X162814000Y-94869000D03*
G04 #@! TD*
D20*
G04 #@! TO.P,Q2,1*
G04 #@! TO.N,Net-(Q1-Pad3)*
X159004000Y-105156000D03*
D21*
G04 #@! TO.P,Q2,2*
G04 #@! TO.N,Net-(C1-Pad2)*
X156464000Y-105156000D03*
G04 #@! TO.P,Q2,3*
G04 #@! TO.N,VCC*
X153924000Y-105156000D03*
G04 #@! TD*
D20*
G04 #@! TO.P,Q3,1*
G04 #@! TO.N,Net-(Q1-Pad3)*
X169672000Y-105156000D03*
D21*
G04 #@! TO.P,Q3,2*
G04 #@! TO.N,Net-(C1-Pad2)*
X167132000Y-105156000D03*
G04 #@! TO.P,Q3,3*
G04 #@! TO.N,/I_SENSE*
X164592000Y-105156000D03*
G04 #@! TD*
D20*
G04 #@! TO.P,Q4,1*
G04 #@! TO.N,Net-(Q4-Pad1)*
X153924000Y-100584000D03*
D21*
G04 #@! TO.P,Q4,2*
G04 #@! TO.N,Net-(C1-Pad1)*
X156464000Y-100584000D03*
G04 #@! TO.P,Q4,3*
G04 #@! TO.N,VCC*
X159004000Y-100584000D03*
G04 #@! TD*
D20*
G04 #@! TO.P,Q5,1*
G04 #@! TO.N,Net-(Q4-Pad1)*
X164592000Y-100584000D03*
D21*
G04 #@! TO.P,Q5,2*
G04 #@! TO.N,Net-(C1-Pad1)*
X167132000Y-100584000D03*
G04 #@! TO.P,Q5,3*
G04 #@! TO.N,/I_SENSE*
X169672000Y-100584000D03*
G04 #@! TD*
D10*
G04 #@! TO.P,R6,1*
G04 #@! TO.N,/I_SENSE*
X161798000Y-112014000D03*
D17*
G04 #@! TO.P,R6,2*
G04 #@! TO.N,GND*
X161798000Y-114554000D03*
G04 #@! TD*
D22*
G04 #@! TO.N,VCC*
X175514000Y-90932000D02*
X175514000Y-96694000D01*
X175514000Y-96694000D02*
X175594000Y-96774000D01*
X175594000Y-103886000D02*
X175594000Y-96774000D01*
X175514000Y-113538000D02*
X175514000Y-103966000D01*
X175514000Y-103966000D02*
X175594000Y-103886000D01*
D23*
X159004000Y-97917000D02*
X159004000Y-100584000D01*
X159004000Y-94996000D02*
X159004000Y-97917000D01*
X159004000Y-97917000D02*
X174451000Y-97917000D01*
X174451000Y-97917000D02*
X175594000Y-96774000D01*
X149352000Y-110998000D02*
X149352000Y-109728000D01*
X149352000Y-109728000D02*
X153924000Y-105156000D01*
X158115000Y-102997000D02*
X159004000Y-102108000D01*
X159004000Y-102108000D02*
X159004000Y-100584000D01*
X154810208Y-102997000D02*
X158115000Y-102997000D01*
X153924000Y-105156000D02*
X153924000Y-103883208D01*
X153924000Y-103883208D02*
X154810208Y-102997000D01*
X157861000Y-93853000D02*
X159004000Y-94996000D01*
D24*
G04 #@! TO.N,/HB1*
X149733000Y-88011000D02*
X159686000Y-88011000D01*
X159686000Y-88011000D02*
X161464000Y-89789000D01*
X161464000Y-89789000D02*
X162814000Y-89789000D01*
X147193000Y-90551000D02*
X149733000Y-88011000D01*
X147193000Y-112776000D02*
X147193000Y-90551000D01*
X148844000Y-114427000D02*
X147193000Y-112776000D01*
G04 #@! TO.N,/HB2*
X157861000Y-90297000D02*
X162433000Y-94869000D01*
X162433000Y-94869000D02*
X162814000Y-94869000D01*
G04 #@! TO.N,Net-(Q1-Pad2)*
X157099000Y-112776000D02*
X153035000Y-112776000D01*
X153035000Y-112776000D02*
X151384000Y-114427000D01*
G04 #@! TO.N,Net-(Q1-Pad3)*
X162309000Y-103251000D02*
X169167000Y-103251000D01*
X169167000Y-103251000D02*
X169672000Y-103756000D01*
X169672000Y-103756000D02*
X169672000Y-105156000D01*
X159004000Y-105156000D02*
X160404000Y-105156000D01*
X160404000Y-105156000D02*
X162309000Y-103251000D01*
X159004000Y-105156000D02*
X159004000Y-109901000D01*
X159004000Y-109901000D02*
X157399000Y-111506000D01*
X157399000Y-111506000D02*
X157099000Y-111506000D01*
X157099000Y-111506000D02*
X152400000Y-111506000D01*
X152400000Y-111506000D02*
X151892000Y-110998000D01*
G04 #@! TO.N,Net-(Q4-Pad1)*
X150749000Y-93472000D02*
X154940000Y-93472000D01*
X154940000Y-93472000D02*
X155321000Y-93853000D01*
X153924000Y-100584000D02*
X153924000Y-95250000D01*
X153924000Y-95250000D02*
X155321000Y-93853000D01*
G04 #@! TO.N,Net-(Q6-Pad2)*
X150749000Y-92202000D02*
X153416000Y-92202000D01*
X153416000Y-92202000D02*
X155321000Y-90297000D01*
D25*
G04 #@! TO.N,/I_SENSE*
X164592000Y-105156000D02*
X164592000Y-109220000D01*
X164592000Y-109220000D02*
X161798000Y-112014000D01*
G04 #@! TD*
D26*
G04 #@! TO.N,GND*
G36*
X146570195Y-89792119D02*
X146488624Y-89846623D01*
X146434120Y-89928194D01*
X146434117Y-89928197D01*
X146272688Y-90169794D01*
X146196861Y-90551000D01*
X146216001Y-90647223D01*
X146216000Y-112679782D01*
X146196861Y-112776000D01*
X146216000Y-112872218D01*
X146216000Y-112872222D01*
X146272687Y-113157205D01*
X146488623Y-113480377D01*
X146570197Y-113534883D01*
X147316157Y-114280844D01*
X147287085Y-114427000D01*
X147405598Y-115022806D01*
X147743095Y-115527905D01*
X148248194Y-115865402D01*
X148693607Y-115954000D01*
X148994393Y-115954000D01*
X149439806Y-115865402D01*
X149944905Y-115527905D01*
X150097310Y-115299814D01*
X150519024Y-115721528D01*
X151080261Y-115954000D01*
X151687739Y-115954000D01*
X152248976Y-115721528D01*
X152678528Y-115291976D01*
X152911000Y-114730739D01*
X152911000Y-114331750D01*
X155714000Y-114331750D01*
X155714000Y-114622309D01*
X155810673Y-114855698D01*
X155989301Y-115034327D01*
X156222690Y-115131000D01*
X156813250Y-115131000D01*
X156972000Y-114972250D01*
X156972000Y-114173000D01*
X157226000Y-114173000D01*
X157226000Y-114972250D01*
X157384750Y-115131000D01*
X157975310Y-115131000D01*
X158208699Y-115034327D01*
X158339984Y-114903041D01*
X160406086Y-114903041D01*
X160645611Y-115409134D01*
X161060577Y-115785041D01*
X161448961Y-115945904D01*
X161671000Y-115823915D01*
X161671000Y-114681000D01*
X161925000Y-114681000D01*
X161925000Y-115823915D01*
X162147039Y-115945904D01*
X162535423Y-115785041D01*
X162950389Y-115409134D01*
X163189914Y-114903041D01*
X163068629Y-114681000D01*
X161925000Y-114681000D01*
X161671000Y-114681000D01*
X160527371Y-114681000D01*
X160406086Y-114903041D01*
X158339984Y-114903041D01*
X158387327Y-114855698D01*
X158484000Y-114622309D01*
X158484000Y-114331750D01*
X158325250Y-114173000D01*
X157226000Y-114173000D01*
X156972000Y-114173000D01*
X155872750Y-114173000D01*
X155714000Y-114331750D01*
X152911000Y-114331750D01*
X152911000Y-114281687D01*
X153439687Y-113753000D01*
X155714000Y-113753000D01*
X155714000Y-113760250D01*
X155872750Y-113919000D01*
X156512150Y-113919000D01*
X156683080Y-113953000D01*
X157514920Y-113953000D01*
X157685850Y-113919000D01*
X158325250Y-113919000D01*
X158484000Y-113760250D01*
X158484000Y-113469691D01*
X158433124Y-113346866D01*
X158507709Y-113235242D01*
X158599058Y-112776000D01*
X158507709Y-112316758D01*
X158390271Y-112141000D01*
X158507709Y-111965242D01*
X158553959Y-111732727D01*
X159626806Y-110659881D01*
X159708377Y-110605377D01*
X159762881Y-110523806D01*
X159762883Y-110523804D01*
X159924313Y-110282207D01*
X159953987Y-110133024D01*
X159981000Y-109997223D01*
X159981000Y-109997219D01*
X160000139Y-109901000D01*
X159981000Y-109804781D01*
X159981000Y-106781926D01*
X160187661Y-106740818D01*
X160428137Y-106580137D01*
X160588818Y-106339661D01*
X160635269Y-106106138D01*
X160785206Y-106076313D01*
X161108377Y-105860377D01*
X161162883Y-105778803D01*
X162713687Y-104228000D01*
X163255294Y-104228000D01*
X163059400Y-104521176D01*
X162933126Y-105156000D01*
X163059400Y-105790824D01*
X163365000Y-106248186D01*
X163365001Y-108711759D01*
X161589761Y-110487000D01*
X161494261Y-110487000D01*
X160933024Y-110719472D01*
X160503472Y-111149024D01*
X160271000Y-111710261D01*
X160271000Y-112317739D01*
X160503472Y-112878976D01*
X160933024Y-113308528D01*
X161031486Y-113349312D01*
X160645611Y-113698866D01*
X160406086Y-114204959D01*
X160527371Y-114427000D01*
X161671000Y-114427000D01*
X161671000Y-114407000D01*
X161925000Y-114407000D01*
X161925000Y-114427000D01*
X163068629Y-114427000D01*
X163189914Y-114204959D01*
X162950389Y-113698866D01*
X162564514Y-113349312D01*
X162662976Y-113308528D01*
X163023373Y-112948131D01*
X166456000Y-112948131D01*
X166456000Y-113873869D01*
X166810264Y-114729140D01*
X167464860Y-115383736D01*
X168320131Y-115738000D01*
X169245869Y-115738000D01*
X170101140Y-115383736D01*
X170755736Y-114729140D01*
X171110000Y-113873869D01*
X171110000Y-112948131D01*
X170755736Y-112092860D01*
X170101140Y-111438264D01*
X169245869Y-111084000D01*
X168320131Y-111084000D01*
X167464860Y-111438264D01*
X166810264Y-112092860D01*
X166456000Y-112948131D01*
X163023373Y-112948131D01*
X163092528Y-112878976D01*
X163325000Y-112317739D01*
X163325000Y-112222239D01*
X165374170Y-110173070D01*
X165476617Y-110104617D01*
X165747808Y-109698752D01*
X165819000Y-109340847D01*
X165819000Y-109340843D01*
X165843037Y-109220000D01*
X165819000Y-109099157D01*
X165819000Y-106248186D01*
X165862000Y-106183832D01*
X165958999Y-106329001D01*
X166497176Y-106688600D01*
X166971758Y-106783000D01*
X167292242Y-106783000D01*
X167766824Y-106688600D01*
X168149489Y-106432911D01*
X168247863Y-106580137D01*
X168488339Y-106740818D01*
X168772000Y-106797242D01*
X170572000Y-106797242D01*
X170855661Y-106740818D01*
X171096137Y-106580137D01*
X171256818Y-106339661D01*
X171313242Y-106056000D01*
X171313242Y-104256000D01*
X171256818Y-103972339D01*
X171096137Y-103731863D01*
X170855661Y-103571182D01*
X170622138Y-103524731D01*
X170592313Y-103374794D01*
X170592313Y-103374793D01*
X170430883Y-103133197D01*
X170376377Y-103051623D01*
X170294803Y-102997117D01*
X169925883Y-102628197D01*
X169871377Y-102546623D01*
X169548206Y-102330687D01*
X169263223Y-102274000D01*
X169263218Y-102274000D01*
X169167000Y-102254861D01*
X169070782Y-102274000D01*
X162405219Y-102274000D01*
X162309000Y-102254861D01*
X162212781Y-102274000D01*
X162212777Y-102274000D01*
X161987778Y-102318755D01*
X161927793Y-102330687D01*
X161686196Y-102492117D01*
X161686194Y-102492119D01*
X161604623Y-102546623D01*
X161550119Y-102628194D01*
X160435472Y-103742841D01*
X160428137Y-103731863D01*
X160187661Y-103571182D01*
X159904000Y-103514758D01*
X159686035Y-103514758D01*
X159945531Y-103255262D01*
X160068858Y-103172858D01*
X160395303Y-102684297D01*
X160481000Y-102253471D01*
X160481000Y-102253470D01*
X160509936Y-102108000D01*
X160481000Y-101962530D01*
X160481000Y-101302035D01*
X160536600Y-101218824D01*
X160662874Y-100584000D01*
X160536600Y-99949176D01*
X160481000Y-99865965D01*
X160481000Y-99394000D01*
X163011418Y-99394000D01*
X163007182Y-99400339D01*
X162950758Y-99684000D01*
X162950758Y-101484000D01*
X163007182Y-101767661D01*
X163167863Y-102008137D01*
X163408339Y-102168818D01*
X163692000Y-102225242D01*
X165492000Y-102225242D01*
X165775661Y-102168818D01*
X166016137Y-102008137D01*
X166114511Y-101860911D01*
X166497176Y-102116600D01*
X166971758Y-102211000D01*
X167292242Y-102211000D01*
X167766824Y-102116600D01*
X168305001Y-101757001D01*
X168402000Y-101611832D01*
X168498999Y-101757001D01*
X169037176Y-102116600D01*
X169511758Y-102211000D01*
X169832242Y-102211000D01*
X170306824Y-102116600D01*
X170845001Y-101757001D01*
X171204600Y-101218824D01*
X171330874Y-100584000D01*
X171204600Y-99949176D01*
X170845001Y-99410999D01*
X170819560Y-99394000D01*
X173367001Y-99394000D01*
X173367000Y-103344478D01*
X173243372Y-103966000D01*
X173287001Y-104185338D01*
X173287000Y-111966400D01*
X173272758Y-112038000D01*
X173272758Y-115038000D01*
X173329182Y-115321661D01*
X173489863Y-115562137D01*
X173730339Y-115722818D01*
X174014000Y-115779242D01*
X175366261Y-115779242D01*
X175514000Y-115808629D01*
X175661739Y-115779242D01*
X177014000Y-115779242D01*
X177297661Y-115722818D01*
X177538137Y-115562137D01*
X177698818Y-115321661D01*
X177752463Y-115051970D01*
X179259635Y-115051970D01*
X179419418Y-115370739D01*
X180210187Y-115680723D01*
X181059387Y-115664497D01*
X181768582Y-115370739D01*
X181928365Y-115051970D01*
X180594000Y-113717605D01*
X179259635Y-115051970D01*
X177752463Y-115051970D01*
X177755242Y-115038000D01*
X177755242Y-113154187D01*
X178451277Y-113154187D01*
X178467503Y-114003387D01*
X178761261Y-114712582D01*
X179080030Y-114872365D01*
X180414395Y-113538000D01*
X180773605Y-113538000D01*
X182107970Y-114872365D01*
X182426739Y-114712582D01*
X182736723Y-113921813D01*
X182720497Y-113072613D01*
X182426739Y-112363418D01*
X182107970Y-112203635D01*
X180773605Y-113538000D01*
X180414395Y-113538000D01*
X179080030Y-112203635D01*
X178761261Y-112363418D01*
X178451277Y-113154187D01*
X177755242Y-113154187D01*
X177755242Y-112038000D01*
X177752464Y-112024030D01*
X179259635Y-112024030D01*
X180594000Y-113358395D01*
X181928365Y-112024030D01*
X181768582Y-111705261D01*
X180977813Y-111395277D01*
X180128613Y-111411503D01*
X179419418Y-111705261D01*
X179259635Y-112024030D01*
X177752464Y-112024030D01*
X177741000Y-111966401D01*
X177741000Y-105038532D01*
X179621073Y-105038532D01*
X179719736Y-105305387D01*
X180329461Y-105531908D01*
X180979460Y-105507856D01*
X181468264Y-105305387D01*
X181566927Y-105038532D01*
X180594000Y-104065605D01*
X179621073Y-105038532D01*
X177741000Y-105038532D01*
X177741000Y-104507526D01*
X177821000Y-104105338D01*
X177821000Y-104105334D01*
X177864628Y-103886001D01*
X177821000Y-103666668D01*
X177821000Y-103621461D01*
X178948092Y-103621461D01*
X178972144Y-104271460D01*
X179174613Y-104760264D01*
X179441468Y-104858927D01*
X180414395Y-103886000D01*
X180773605Y-103886000D01*
X181746532Y-104858927D01*
X182013387Y-104760264D01*
X182239908Y-104150539D01*
X182215856Y-103500540D01*
X182013387Y-103011736D01*
X181746532Y-102913073D01*
X180773605Y-103886000D01*
X180414395Y-103886000D01*
X179441468Y-102913073D01*
X179174613Y-103011736D01*
X178948092Y-103621461D01*
X177821000Y-103621461D01*
X177821000Y-102733468D01*
X179621073Y-102733468D01*
X180594000Y-103706395D01*
X181566927Y-102733468D01*
X181468264Y-102466613D01*
X180858539Y-102240092D01*
X180208540Y-102264144D01*
X179719736Y-102466613D01*
X179621073Y-102733468D01*
X177821000Y-102733468D01*
X177821000Y-97781745D01*
X179765861Y-97781745D01*
X179839995Y-98027864D01*
X180377223Y-98220965D01*
X180947454Y-98193778D01*
X181348005Y-98027864D01*
X181422139Y-97781745D01*
X180594000Y-96953605D01*
X179765861Y-97781745D01*
X177821000Y-97781745D01*
X177821000Y-96993332D01*
X177864628Y-96773999D01*
X177821509Y-96557223D01*
X179147035Y-96557223D01*
X179174222Y-97127454D01*
X179340136Y-97528005D01*
X179586255Y-97602139D01*
X180414395Y-96774000D01*
X180773605Y-96774000D01*
X181601745Y-97602139D01*
X181847864Y-97528005D01*
X182040965Y-96990777D01*
X182013778Y-96420546D01*
X181847864Y-96019995D01*
X181601745Y-95945861D01*
X180773605Y-96774000D01*
X180414395Y-96774000D01*
X179586255Y-95945861D01*
X179340136Y-96019995D01*
X179147035Y-96557223D01*
X177821509Y-96557223D01*
X177821000Y-96554666D01*
X177821000Y-96554662D01*
X177741000Y-96152474D01*
X177741000Y-95766255D01*
X179765861Y-95766255D01*
X180594000Y-96594395D01*
X181422139Y-95766255D01*
X181348005Y-95520136D01*
X180810777Y-95327035D01*
X180240546Y-95354222D01*
X179839995Y-95520136D01*
X179765861Y-95766255D01*
X177741000Y-95766255D01*
X177741000Y-91217750D01*
X178459000Y-91217750D01*
X178459000Y-92558310D01*
X178555673Y-92791699D01*
X178734302Y-92970327D01*
X178967691Y-93067000D01*
X180308250Y-93067000D01*
X180467000Y-92908250D01*
X180467000Y-91059000D01*
X180721000Y-91059000D01*
X180721000Y-92908250D01*
X180879750Y-93067000D01*
X182220309Y-93067000D01*
X182453698Y-92970327D01*
X182632327Y-92791699D01*
X182729000Y-92558310D01*
X182729000Y-91217750D01*
X182570250Y-91059000D01*
X180721000Y-91059000D01*
X180467000Y-91059000D01*
X178617750Y-91059000D01*
X178459000Y-91217750D01*
X177741000Y-91217750D01*
X177741000Y-90489022D01*
X177655417Y-90282406D01*
X177611788Y-90063068D01*
X177487544Y-89877123D01*
X177401960Y-89670506D01*
X177243821Y-89512367D01*
X177119577Y-89326423D01*
X177088548Y-89305690D01*
X178459000Y-89305690D01*
X178459000Y-90646250D01*
X178617750Y-90805000D01*
X180467000Y-90805000D01*
X180467000Y-88955750D01*
X180721000Y-88955750D01*
X180721000Y-90805000D01*
X182570250Y-90805000D01*
X182729000Y-90646250D01*
X182729000Y-89305690D01*
X182632327Y-89072301D01*
X182453698Y-88893673D01*
X182220309Y-88797000D01*
X180879750Y-88797000D01*
X180721000Y-88955750D01*
X180467000Y-88955750D01*
X180308250Y-88797000D01*
X178967691Y-88797000D01*
X178734302Y-88893673D01*
X178555673Y-89072301D01*
X178459000Y-89305690D01*
X177088548Y-89305690D01*
X176933634Y-89202180D01*
X176775494Y-89044040D01*
X176568875Y-88958456D01*
X176382931Y-88834212D01*
X176163595Y-88790583D01*
X175956978Y-88705000D01*
X175733338Y-88705000D01*
X175514000Y-88661371D01*
X175294662Y-88705000D01*
X175071022Y-88705000D01*
X174864406Y-88790583D01*
X174645068Y-88834212D01*
X174459123Y-88958456D01*
X174252506Y-89044040D01*
X174094367Y-89202179D01*
X173908423Y-89326423D01*
X173784180Y-89512366D01*
X173626040Y-89670506D01*
X173540456Y-89877125D01*
X173416212Y-90063069D01*
X173372583Y-90282405D01*
X173287000Y-90489022D01*
X173287000Y-90712663D01*
X173287001Y-96440000D01*
X162999483Y-96440000D01*
X163429315Y-96354501D01*
X163950953Y-96005953D01*
X164299501Y-95484315D01*
X164421895Y-94869000D01*
X164299501Y-94253685D01*
X163950953Y-93732047D01*
X163751834Y-93599000D01*
X163950953Y-93465953D01*
X164299501Y-92944315D01*
X164421895Y-92329000D01*
X164299501Y-91713685D01*
X164010807Y-91281625D01*
X164188137Y-91163137D01*
X164312422Y-90977131D01*
X166456000Y-90977131D01*
X166456000Y-91902869D01*
X166810264Y-92758140D01*
X167464860Y-93412736D01*
X168320131Y-93767000D01*
X169245869Y-93767000D01*
X170101140Y-93412736D01*
X170755736Y-92758140D01*
X171110000Y-91902869D01*
X171110000Y-90977131D01*
X170755736Y-90121860D01*
X170101140Y-89467264D01*
X169245869Y-89113000D01*
X168320131Y-89113000D01*
X167464860Y-89467264D01*
X166810264Y-90121860D01*
X166456000Y-90977131D01*
X164312422Y-90977131D01*
X164348818Y-90922661D01*
X164405242Y-90639000D01*
X164405242Y-88939000D01*
X164348818Y-88655339D01*
X164188137Y-88414863D01*
X163947661Y-88254182D01*
X163664000Y-88197758D01*
X161964000Y-88197758D01*
X161680339Y-88254182D01*
X161458858Y-88402171D01*
X160599686Y-87543000D01*
X182840001Y-87543000D01*
X182840000Y-116927000D01*
X139867000Y-116927000D01*
X139867000Y-112948131D01*
X141056000Y-112948131D01*
X141056000Y-113873869D01*
X141410264Y-114729140D01*
X142064860Y-115383736D01*
X142920131Y-115738000D01*
X143845869Y-115738000D01*
X144701140Y-115383736D01*
X145355736Y-114729140D01*
X145710000Y-113873869D01*
X145710000Y-112948131D01*
X145355736Y-112092860D01*
X144701140Y-111438264D01*
X143845869Y-111084000D01*
X142920131Y-111084000D01*
X142064860Y-111438264D01*
X141410264Y-112092860D01*
X141056000Y-112948131D01*
X139867000Y-112948131D01*
X139867000Y-104967022D01*
X141283000Y-104967022D01*
X141283000Y-105852978D01*
X141622040Y-106671494D01*
X142248506Y-107297960D01*
X143067022Y-107637000D01*
X143952978Y-107637000D01*
X144771494Y-107297960D01*
X145397960Y-106671494D01*
X145737000Y-105852978D01*
X145737000Y-104967022D01*
X145397960Y-104148506D01*
X144771494Y-103522040D01*
X143952978Y-103183000D01*
X143067022Y-103183000D01*
X142248506Y-103522040D01*
X141622040Y-104148506D01*
X141283000Y-104967022D01*
X139867000Y-104967022D01*
X139867000Y-98830000D01*
X141268758Y-98830000D01*
X141268758Y-101830000D01*
X141325182Y-102113661D01*
X141485863Y-102354137D01*
X141726339Y-102514818D01*
X142010000Y-102571242D01*
X145010000Y-102571242D01*
X145293661Y-102514818D01*
X145534137Y-102354137D01*
X145694818Y-102113661D01*
X145751242Y-101830000D01*
X145751242Y-98830000D01*
X145694818Y-98546339D01*
X145534137Y-98305863D01*
X145293661Y-98145182D01*
X145010000Y-98088758D01*
X142010000Y-98088758D01*
X141726339Y-98145182D01*
X141485863Y-98305863D01*
X141325182Y-98546339D01*
X141268758Y-98830000D01*
X139867000Y-98830000D01*
X139867000Y-90977131D01*
X141183000Y-90977131D01*
X141183000Y-91902869D01*
X141537264Y-92758140D01*
X142191860Y-93412736D01*
X143047131Y-93767000D01*
X143972869Y-93767000D01*
X144828140Y-93412736D01*
X145482736Y-92758140D01*
X145837000Y-91902869D01*
X145837000Y-90977131D01*
X145482736Y-90121860D01*
X144828140Y-89467264D01*
X143972869Y-89113000D01*
X143047131Y-89113000D01*
X142191860Y-89467264D01*
X141537264Y-90121860D01*
X141183000Y-90977131D01*
X139867000Y-90977131D01*
X139867000Y-87543000D01*
X148819314Y-87543000D01*
X146570195Y-89792119D01*
X146570195Y-89792119D01*
G37*
X146570195Y-89792119D02*
X146488624Y-89846623D01*
X146434120Y-89928194D01*
X146434117Y-89928197D01*
X146272688Y-90169794D01*
X146196861Y-90551000D01*
X146216001Y-90647223D01*
X146216000Y-112679782D01*
X146196861Y-112776000D01*
X146216000Y-112872218D01*
X146216000Y-112872222D01*
X146272687Y-113157205D01*
X146488623Y-113480377D01*
X146570197Y-113534883D01*
X147316157Y-114280844D01*
X147287085Y-114427000D01*
X147405598Y-115022806D01*
X147743095Y-115527905D01*
X148248194Y-115865402D01*
X148693607Y-115954000D01*
X148994393Y-115954000D01*
X149439806Y-115865402D01*
X149944905Y-115527905D01*
X150097310Y-115299814D01*
X150519024Y-115721528D01*
X151080261Y-115954000D01*
X151687739Y-115954000D01*
X152248976Y-115721528D01*
X152678528Y-115291976D01*
X152911000Y-114730739D01*
X152911000Y-114331750D01*
X155714000Y-114331750D01*
X155714000Y-114622309D01*
X155810673Y-114855698D01*
X155989301Y-115034327D01*
X156222690Y-115131000D01*
X156813250Y-115131000D01*
X156972000Y-114972250D01*
X156972000Y-114173000D01*
X157226000Y-114173000D01*
X157226000Y-114972250D01*
X157384750Y-115131000D01*
X157975310Y-115131000D01*
X158208699Y-115034327D01*
X158339984Y-114903041D01*
X160406086Y-114903041D01*
X160645611Y-115409134D01*
X161060577Y-115785041D01*
X161448961Y-115945904D01*
X161671000Y-115823915D01*
X161671000Y-114681000D01*
X161925000Y-114681000D01*
X161925000Y-115823915D01*
X162147039Y-115945904D01*
X162535423Y-115785041D01*
X162950389Y-115409134D01*
X163189914Y-114903041D01*
X163068629Y-114681000D01*
X161925000Y-114681000D01*
X161671000Y-114681000D01*
X160527371Y-114681000D01*
X160406086Y-114903041D01*
X158339984Y-114903041D01*
X158387327Y-114855698D01*
X158484000Y-114622309D01*
X158484000Y-114331750D01*
X158325250Y-114173000D01*
X157226000Y-114173000D01*
X156972000Y-114173000D01*
X155872750Y-114173000D01*
X155714000Y-114331750D01*
X152911000Y-114331750D01*
X152911000Y-114281687D01*
X153439687Y-113753000D01*
X155714000Y-113753000D01*
X155714000Y-113760250D01*
X155872750Y-113919000D01*
X156512150Y-113919000D01*
X156683080Y-113953000D01*
X157514920Y-113953000D01*
X157685850Y-113919000D01*
X158325250Y-113919000D01*
X158484000Y-113760250D01*
X158484000Y-113469691D01*
X158433124Y-113346866D01*
X158507709Y-113235242D01*
X158599058Y-112776000D01*
X158507709Y-112316758D01*
X158390271Y-112141000D01*
X158507709Y-111965242D01*
X158553959Y-111732727D01*
X159626806Y-110659881D01*
X159708377Y-110605377D01*
X159762881Y-110523806D01*
X159762883Y-110523804D01*
X159924313Y-110282207D01*
X159953987Y-110133024D01*
X159981000Y-109997223D01*
X159981000Y-109997219D01*
X160000139Y-109901000D01*
X159981000Y-109804781D01*
X159981000Y-106781926D01*
X160187661Y-106740818D01*
X160428137Y-106580137D01*
X160588818Y-106339661D01*
X160635269Y-106106138D01*
X160785206Y-106076313D01*
X161108377Y-105860377D01*
X161162883Y-105778803D01*
X162713687Y-104228000D01*
X163255294Y-104228000D01*
X163059400Y-104521176D01*
X162933126Y-105156000D01*
X163059400Y-105790824D01*
X163365000Y-106248186D01*
X163365001Y-108711759D01*
X161589761Y-110487000D01*
X161494261Y-110487000D01*
X160933024Y-110719472D01*
X160503472Y-111149024D01*
X160271000Y-111710261D01*
X160271000Y-112317739D01*
X160503472Y-112878976D01*
X160933024Y-113308528D01*
X161031486Y-113349312D01*
X160645611Y-113698866D01*
X160406086Y-114204959D01*
X160527371Y-114427000D01*
X161671000Y-114427000D01*
X161671000Y-114407000D01*
X161925000Y-114407000D01*
X161925000Y-114427000D01*
X163068629Y-114427000D01*
X163189914Y-114204959D01*
X162950389Y-113698866D01*
X162564514Y-113349312D01*
X162662976Y-113308528D01*
X163023373Y-112948131D01*
X166456000Y-112948131D01*
X166456000Y-113873869D01*
X166810264Y-114729140D01*
X167464860Y-115383736D01*
X168320131Y-115738000D01*
X169245869Y-115738000D01*
X170101140Y-115383736D01*
X170755736Y-114729140D01*
X171110000Y-113873869D01*
X171110000Y-112948131D01*
X170755736Y-112092860D01*
X170101140Y-111438264D01*
X169245869Y-111084000D01*
X168320131Y-111084000D01*
X167464860Y-111438264D01*
X166810264Y-112092860D01*
X166456000Y-112948131D01*
X163023373Y-112948131D01*
X163092528Y-112878976D01*
X163325000Y-112317739D01*
X163325000Y-112222239D01*
X165374170Y-110173070D01*
X165476617Y-110104617D01*
X165747808Y-109698752D01*
X165819000Y-109340847D01*
X165819000Y-109340843D01*
X165843037Y-109220000D01*
X165819000Y-109099157D01*
X165819000Y-106248186D01*
X165862000Y-106183832D01*
X165958999Y-106329001D01*
X166497176Y-106688600D01*
X166971758Y-106783000D01*
X167292242Y-106783000D01*
X167766824Y-106688600D01*
X168149489Y-106432911D01*
X168247863Y-106580137D01*
X168488339Y-106740818D01*
X168772000Y-106797242D01*
X170572000Y-106797242D01*
X170855661Y-106740818D01*
X171096137Y-106580137D01*
X171256818Y-106339661D01*
X171313242Y-106056000D01*
X171313242Y-104256000D01*
X171256818Y-103972339D01*
X171096137Y-103731863D01*
X170855661Y-103571182D01*
X170622138Y-103524731D01*
X170592313Y-103374794D01*
X170592313Y-103374793D01*
X170430883Y-103133197D01*
X170376377Y-103051623D01*
X170294803Y-102997117D01*
X169925883Y-102628197D01*
X169871377Y-102546623D01*
X169548206Y-102330687D01*
X169263223Y-102274000D01*
X169263218Y-102274000D01*
X169167000Y-102254861D01*
X169070782Y-102274000D01*
X162405219Y-102274000D01*
X162309000Y-102254861D01*
X162212781Y-102274000D01*
X162212777Y-102274000D01*
X161987778Y-102318755D01*
X161927793Y-102330687D01*
X161686196Y-102492117D01*
X161686194Y-102492119D01*
X161604623Y-102546623D01*
X161550119Y-102628194D01*
X160435472Y-103742841D01*
X160428137Y-103731863D01*
X160187661Y-103571182D01*
X159904000Y-103514758D01*
X159686035Y-103514758D01*
X159945531Y-103255262D01*
X160068858Y-103172858D01*
X160395303Y-102684297D01*
X160481000Y-102253471D01*
X160481000Y-102253470D01*
X160509936Y-102108000D01*
X160481000Y-101962530D01*
X160481000Y-101302035D01*
X160536600Y-101218824D01*
X160662874Y-100584000D01*
X160536600Y-99949176D01*
X160481000Y-99865965D01*
X160481000Y-99394000D01*
X163011418Y-99394000D01*
X163007182Y-99400339D01*
X162950758Y-99684000D01*
X162950758Y-101484000D01*
X163007182Y-101767661D01*
X163167863Y-102008137D01*
X163408339Y-102168818D01*
X163692000Y-102225242D01*
X165492000Y-102225242D01*
X165775661Y-102168818D01*
X166016137Y-102008137D01*
X166114511Y-101860911D01*
X166497176Y-102116600D01*
X166971758Y-102211000D01*
X167292242Y-102211000D01*
X167766824Y-102116600D01*
X168305001Y-101757001D01*
X168402000Y-101611832D01*
X168498999Y-101757001D01*
X169037176Y-102116600D01*
X169511758Y-102211000D01*
X169832242Y-102211000D01*
X170306824Y-102116600D01*
X170845001Y-101757001D01*
X171204600Y-101218824D01*
X171330874Y-100584000D01*
X171204600Y-99949176D01*
X170845001Y-99410999D01*
X170819560Y-99394000D01*
X173367001Y-99394000D01*
X173367000Y-103344478D01*
X173243372Y-103966000D01*
X173287001Y-104185338D01*
X173287000Y-111966400D01*
X173272758Y-112038000D01*
X173272758Y-115038000D01*
X173329182Y-115321661D01*
X173489863Y-115562137D01*
X173730339Y-115722818D01*
X174014000Y-115779242D01*
X175366261Y-115779242D01*
X175514000Y-115808629D01*
X175661739Y-115779242D01*
X177014000Y-115779242D01*
X177297661Y-115722818D01*
X177538137Y-115562137D01*
X177698818Y-115321661D01*
X177752463Y-115051970D01*
X179259635Y-115051970D01*
X179419418Y-115370739D01*
X180210187Y-115680723D01*
X181059387Y-115664497D01*
X181768582Y-115370739D01*
X181928365Y-115051970D01*
X180594000Y-113717605D01*
X179259635Y-115051970D01*
X177752463Y-115051970D01*
X177755242Y-115038000D01*
X177755242Y-113154187D01*
X178451277Y-113154187D01*
X178467503Y-114003387D01*
X178761261Y-114712582D01*
X179080030Y-114872365D01*
X180414395Y-113538000D01*
X180773605Y-113538000D01*
X182107970Y-114872365D01*
X182426739Y-114712582D01*
X182736723Y-113921813D01*
X182720497Y-113072613D01*
X182426739Y-112363418D01*
X182107970Y-112203635D01*
X180773605Y-113538000D01*
X180414395Y-113538000D01*
X179080030Y-112203635D01*
X178761261Y-112363418D01*
X178451277Y-113154187D01*
X177755242Y-113154187D01*
X177755242Y-112038000D01*
X177752464Y-112024030D01*
X179259635Y-112024030D01*
X180594000Y-113358395D01*
X181928365Y-112024030D01*
X181768582Y-111705261D01*
X180977813Y-111395277D01*
X180128613Y-111411503D01*
X179419418Y-111705261D01*
X179259635Y-112024030D01*
X177752464Y-112024030D01*
X177741000Y-111966401D01*
X177741000Y-105038532D01*
X179621073Y-105038532D01*
X179719736Y-105305387D01*
X180329461Y-105531908D01*
X180979460Y-105507856D01*
X181468264Y-105305387D01*
X181566927Y-105038532D01*
X180594000Y-104065605D01*
X179621073Y-105038532D01*
X177741000Y-105038532D01*
X177741000Y-104507526D01*
X177821000Y-104105338D01*
X177821000Y-104105334D01*
X177864628Y-103886001D01*
X177821000Y-103666668D01*
X177821000Y-103621461D01*
X178948092Y-103621461D01*
X178972144Y-104271460D01*
X179174613Y-104760264D01*
X179441468Y-104858927D01*
X180414395Y-103886000D01*
X180773605Y-103886000D01*
X181746532Y-104858927D01*
X182013387Y-104760264D01*
X182239908Y-104150539D01*
X182215856Y-103500540D01*
X182013387Y-103011736D01*
X181746532Y-102913073D01*
X180773605Y-103886000D01*
X180414395Y-103886000D01*
X179441468Y-102913073D01*
X179174613Y-103011736D01*
X178948092Y-103621461D01*
X177821000Y-103621461D01*
X177821000Y-102733468D01*
X179621073Y-102733468D01*
X180594000Y-103706395D01*
X181566927Y-102733468D01*
X181468264Y-102466613D01*
X180858539Y-102240092D01*
X180208540Y-102264144D01*
X179719736Y-102466613D01*
X179621073Y-102733468D01*
X177821000Y-102733468D01*
X177821000Y-97781745D01*
X179765861Y-97781745D01*
X179839995Y-98027864D01*
X180377223Y-98220965D01*
X180947454Y-98193778D01*
X181348005Y-98027864D01*
X181422139Y-97781745D01*
X180594000Y-96953605D01*
X179765861Y-97781745D01*
X177821000Y-97781745D01*
X177821000Y-96993332D01*
X177864628Y-96773999D01*
X177821509Y-96557223D01*
X179147035Y-96557223D01*
X179174222Y-97127454D01*
X179340136Y-97528005D01*
X179586255Y-97602139D01*
X180414395Y-96774000D01*
X180773605Y-96774000D01*
X181601745Y-97602139D01*
X181847864Y-97528005D01*
X182040965Y-96990777D01*
X182013778Y-96420546D01*
X181847864Y-96019995D01*
X181601745Y-95945861D01*
X180773605Y-96774000D01*
X180414395Y-96774000D01*
X179586255Y-95945861D01*
X179340136Y-96019995D01*
X179147035Y-96557223D01*
X177821509Y-96557223D01*
X177821000Y-96554666D01*
X177821000Y-96554662D01*
X177741000Y-96152474D01*
X177741000Y-95766255D01*
X179765861Y-95766255D01*
X180594000Y-96594395D01*
X181422139Y-95766255D01*
X181348005Y-95520136D01*
X180810777Y-95327035D01*
X180240546Y-95354222D01*
X179839995Y-95520136D01*
X179765861Y-95766255D01*
X177741000Y-95766255D01*
X177741000Y-91217750D01*
X178459000Y-91217750D01*
X178459000Y-92558310D01*
X178555673Y-92791699D01*
X178734302Y-92970327D01*
X178967691Y-93067000D01*
X180308250Y-93067000D01*
X180467000Y-92908250D01*
X180467000Y-91059000D01*
X180721000Y-91059000D01*
X180721000Y-92908250D01*
X180879750Y-93067000D01*
X182220309Y-93067000D01*
X182453698Y-92970327D01*
X182632327Y-92791699D01*
X182729000Y-92558310D01*
X182729000Y-91217750D01*
X182570250Y-91059000D01*
X180721000Y-91059000D01*
X180467000Y-91059000D01*
X178617750Y-91059000D01*
X178459000Y-91217750D01*
X177741000Y-91217750D01*
X177741000Y-90489022D01*
X177655417Y-90282406D01*
X177611788Y-90063068D01*
X177487544Y-89877123D01*
X177401960Y-89670506D01*
X177243821Y-89512367D01*
X177119577Y-89326423D01*
X177088548Y-89305690D01*
X178459000Y-89305690D01*
X178459000Y-90646250D01*
X178617750Y-90805000D01*
X180467000Y-90805000D01*
X180467000Y-88955750D01*
X180721000Y-88955750D01*
X180721000Y-90805000D01*
X182570250Y-90805000D01*
X182729000Y-90646250D01*
X182729000Y-89305690D01*
X182632327Y-89072301D01*
X182453698Y-88893673D01*
X182220309Y-88797000D01*
X180879750Y-88797000D01*
X180721000Y-88955750D01*
X180467000Y-88955750D01*
X180308250Y-88797000D01*
X178967691Y-88797000D01*
X178734302Y-88893673D01*
X178555673Y-89072301D01*
X178459000Y-89305690D01*
X177088548Y-89305690D01*
X176933634Y-89202180D01*
X176775494Y-89044040D01*
X176568875Y-88958456D01*
X176382931Y-88834212D01*
X176163595Y-88790583D01*
X175956978Y-88705000D01*
X175733338Y-88705000D01*
X175514000Y-88661371D01*
X175294662Y-88705000D01*
X175071022Y-88705000D01*
X174864406Y-88790583D01*
X174645068Y-88834212D01*
X174459123Y-88958456D01*
X174252506Y-89044040D01*
X174094367Y-89202179D01*
X173908423Y-89326423D01*
X173784180Y-89512366D01*
X173626040Y-89670506D01*
X173540456Y-89877125D01*
X173416212Y-90063069D01*
X173372583Y-90282405D01*
X173287000Y-90489022D01*
X173287000Y-90712663D01*
X173287001Y-96440000D01*
X162999483Y-96440000D01*
X163429315Y-96354501D01*
X163950953Y-96005953D01*
X164299501Y-95484315D01*
X164421895Y-94869000D01*
X164299501Y-94253685D01*
X163950953Y-93732047D01*
X163751834Y-93599000D01*
X163950953Y-93465953D01*
X164299501Y-92944315D01*
X164421895Y-92329000D01*
X164299501Y-91713685D01*
X164010807Y-91281625D01*
X164188137Y-91163137D01*
X164312422Y-90977131D01*
X166456000Y-90977131D01*
X166456000Y-91902869D01*
X166810264Y-92758140D01*
X167464860Y-93412736D01*
X168320131Y-93767000D01*
X169245869Y-93767000D01*
X170101140Y-93412736D01*
X170755736Y-92758140D01*
X171110000Y-91902869D01*
X171110000Y-90977131D01*
X170755736Y-90121860D01*
X170101140Y-89467264D01*
X169245869Y-89113000D01*
X168320131Y-89113000D01*
X167464860Y-89467264D01*
X166810264Y-90121860D01*
X166456000Y-90977131D01*
X164312422Y-90977131D01*
X164348818Y-90922661D01*
X164405242Y-90639000D01*
X164405242Y-88939000D01*
X164348818Y-88655339D01*
X164188137Y-88414863D01*
X163947661Y-88254182D01*
X163664000Y-88197758D01*
X161964000Y-88197758D01*
X161680339Y-88254182D01*
X161458858Y-88402171D01*
X160599686Y-87543000D01*
X182840001Y-87543000D01*
X182840000Y-116927000D01*
X139867000Y-116927000D01*
X139867000Y-112948131D01*
X141056000Y-112948131D01*
X141056000Y-113873869D01*
X141410264Y-114729140D01*
X142064860Y-115383736D01*
X142920131Y-115738000D01*
X143845869Y-115738000D01*
X144701140Y-115383736D01*
X145355736Y-114729140D01*
X145710000Y-113873869D01*
X145710000Y-112948131D01*
X145355736Y-112092860D01*
X144701140Y-111438264D01*
X143845869Y-111084000D01*
X142920131Y-111084000D01*
X142064860Y-111438264D01*
X141410264Y-112092860D01*
X141056000Y-112948131D01*
X139867000Y-112948131D01*
X139867000Y-104967022D01*
X141283000Y-104967022D01*
X141283000Y-105852978D01*
X141622040Y-106671494D01*
X142248506Y-107297960D01*
X143067022Y-107637000D01*
X143952978Y-107637000D01*
X144771494Y-107297960D01*
X145397960Y-106671494D01*
X145737000Y-105852978D01*
X145737000Y-104967022D01*
X145397960Y-104148506D01*
X144771494Y-103522040D01*
X143952978Y-103183000D01*
X143067022Y-103183000D01*
X142248506Y-103522040D01*
X141622040Y-104148506D01*
X141283000Y-104967022D01*
X139867000Y-104967022D01*
X139867000Y-98830000D01*
X141268758Y-98830000D01*
X141268758Y-101830000D01*
X141325182Y-102113661D01*
X141485863Y-102354137D01*
X141726339Y-102514818D01*
X142010000Y-102571242D01*
X145010000Y-102571242D01*
X145293661Y-102514818D01*
X145534137Y-102354137D01*
X145694818Y-102113661D01*
X145751242Y-101830000D01*
X145751242Y-98830000D01*
X145694818Y-98546339D01*
X145534137Y-98305863D01*
X145293661Y-98145182D01*
X145010000Y-98088758D01*
X142010000Y-98088758D01*
X141726339Y-98145182D01*
X141485863Y-98305863D01*
X141325182Y-98546339D01*
X141268758Y-98830000D01*
X139867000Y-98830000D01*
X139867000Y-90977131D01*
X141183000Y-90977131D01*
X141183000Y-91902869D01*
X141537264Y-92758140D01*
X142191860Y-93412736D01*
X143047131Y-93767000D01*
X143972869Y-93767000D01*
X144828140Y-93412736D01*
X145482736Y-92758140D01*
X145837000Y-91902869D01*
X145837000Y-90977131D01*
X145482736Y-90121860D01*
X144828140Y-89467264D01*
X143972869Y-89113000D01*
X143047131Y-89113000D01*
X142191860Y-89467264D01*
X141537264Y-90121860D01*
X141183000Y-90977131D01*
X139867000Y-90977131D01*
X139867000Y-87543000D01*
X148819314Y-87543000D01*
X146570195Y-89792119D01*
G36*
X154220095Y-89196095D02*
X153882598Y-89701194D01*
X153764085Y-90297000D01*
X153793157Y-90443156D01*
X153011314Y-91225000D01*
X152134000Y-91225000D01*
X152134000Y-91217750D01*
X151975250Y-91059000D01*
X151335850Y-91059000D01*
X151164920Y-91025000D01*
X150333080Y-91025000D01*
X150162150Y-91059000D01*
X149522750Y-91059000D01*
X149364000Y-91217750D01*
X149364000Y-91508309D01*
X149414876Y-91631134D01*
X149340291Y-91742758D01*
X149248942Y-92202000D01*
X149340291Y-92661242D01*
X149457729Y-92837000D01*
X149340291Y-93012758D01*
X149248942Y-93472000D01*
X149340291Y-93931242D01*
X149600431Y-94320569D01*
X149989758Y-94580709D01*
X150333080Y-94649000D01*
X151164920Y-94649000D01*
X151508242Y-94580709D01*
X151705358Y-94449000D01*
X153343314Y-94449000D01*
X153301195Y-94491119D01*
X153219624Y-94545623D01*
X153165120Y-94627194D01*
X153165117Y-94627197D01*
X153003688Y-94868794D01*
X152927861Y-95250000D01*
X152947001Y-95346223D01*
X152947000Y-98958074D01*
X152740339Y-98999182D01*
X152499863Y-99159863D01*
X152339182Y-99400339D01*
X152282758Y-99684000D01*
X152282758Y-101484000D01*
X152339182Y-101767661D01*
X152499863Y-102008137D01*
X152740339Y-102168818D01*
X153024000Y-102225242D01*
X153493174Y-102225242D01*
X152982468Y-102735947D01*
X152859143Y-102818350D01*
X152532697Y-103306911D01*
X152447000Y-103737737D01*
X152418064Y-103883208D01*
X152447000Y-104028678D01*
X152447000Y-104437965D01*
X152391400Y-104521176D01*
X152371876Y-104619331D01*
X148410468Y-108580739D01*
X148287143Y-108663142D01*
X148170000Y-108838459D01*
X148170000Y-106434504D01*
X148487024Y-106751528D01*
X149048261Y-106984000D01*
X149655739Y-106984000D01*
X150216976Y-106751528D01*
X150646528Y-106321976D01*
X150879000Y-105760739D01*
X150879000Y-105153261D01*
X150646528Y-104592024D01*
X150216976Y-104162472D01*
X149655739Y-103930000D01*
X149048261Y-103930000D01*
X148487024Y-104162472D01*
X148170000Y-104479496D01*
X148170000Y-101434504D01*
X148487024Y-101751528D01*
X149048261Y-101984000D01*
X149655739Y-101984000D01*
X150216976Y-101751528D01*
X150646528Y-101321976D01*
X150879000Y-100760739D01*
X150879000Y-100153261D01*
X150646528Y-99592024D01*
X150216976Y-99162472D01*
X149655739Y-98930000D01*
X149048261Y-98930000D01*
X148487024Y-99162472D01*
X148170000Y-99479496D01*
X148170000Y-90955686D01*
X148769995Y-90355691D01*
X149364000Y-90355691D01*
X149364000Y-90646250D01*
X149522750Y-90805000D01*
X150622000Y-90805000D01*
X150622000Y-90005750D01*
X150876000Y-90005750D01*
X150876000Y-90805000D01*
X151975250Y-90805000D01*
X152134000Y-90646250D01*
X152134000Y-90355691D01*
X152037327Y-90122302D01*
X151858699Y-89943673D01*
X151625310Y-89847000D01*
X151034750Y-89847000D01*
X150876000Y-90005750D01*
X150622000Y-90005750D01*
X150463250Y-89847000D01*
X149872690Y-89847000D01*
X149639301Y-89943673D01*
X149460673Y-90122302D01*
X149364000Y-90355691D01*
X148769995Y-90355691D01*
X150137686Y-88988000D01*
X154531531Y-88988000D01*
X154220095Y-89196095D01*
X154220095Y-89196095D01*
G37*
X154220095Y-89196095D02*
X153882598Y-89701194D01*
X153764085Y-90297000D01*
X153793157Y-90443156D01*
X153011314Y-91225000D01*
X152134000Y-91225000D01*
X152134000Y-91217750D01*
X151975250Y-91059000D01*
X151335850Y-91059000D01*
X151164920Y-91025000D01*
X150333080Y-91025000D01*
X150162150Y-91059000D01*
X149522750Y-91059000D01*
X149364000Y-91217750D01*
X149364000Y-91508309D01*
X149414876Y-91631134D01*
X149340291Y-91742758D01*
X149248942Y-92202000D01*
X149340291Y-92661242D01*
X149457729Y-92837000D01*
X149340291Y-93012758D01*
X149248942Y-93472000D01*
X149340291Y-93931242D01*
X149600431Y-94320569D01*
X149989758Y-94580709D01*
X150333080Y-94649000D01*
X151164920Y-94649000D01*
X151508242Y-94580709D01*
X151705358Y-94449000D01*
X153343314Y-94449000D01*
X153301195Y-94491119D01*
X153219624Y-94545623D01*
X153165120Y-94627194D01*
X153165117Y-94627197D01*
X153003688Y-94868794D01*
X152927861Y-95250000D01*
X152947001Y-95346223D01*
X152947000Y-98958074D01*
X152740339Y-98999182D01*
X152499863Y-99159863D01*
X152339182Y-99400339D01*
X152282758Y-99684000D01*
X152282758Y-101484000D01*
X152339182Y-101767661D01*
X152499863Y-102008137D01*
X152740339Y-102168818D01*
X153024000Y-102225242D01*
X153493174Y-102225242D01*
X152982468Y-102735947D01*
X152859143Y-102818350D01*
X152532697Y-103306911D01*
X152447000Y-103737737D01*
X152418064Y-103883208D01*
X152447000Y-104028678D01*
X152447000Y-104437965D01*
X152391400Y-104521176D01*
X152371876Y-104619331D01*
X148410468Y-108580739D01*
X148287143Y-108663142D01*
X148170000Y-108838459D01*
X148170000Y-106434504D01*
X148487024Y-106751528D01*
X149048261Y-106984000D01*
X149655739Y-106984000D01*
X150216976Y-106751528D01*
X150646528Y-106321976D01*
X150879000Y-105760739D01*
X150879000Y-105153261D01*
X150646528Y-104592024D01*
X150216976Y-104162472D01*
X149655739Y-103930000D01*
X149048261Y-103930000D01*
X148487024Y-104162472D01*
X148170000Y-104479496D01*
X148170000Y-101434504D01*
X148487024Y-101751528D01*
X149048261Y-101984000D01*
X149655739Y-101984000D01*
X150216976Y-101751528D01*
X150646528Y-101321976D01*
X150879000Y-100760739D01*
X150879000Y-100153261D01*
X150646528Y-99592024D01*
X150216976Y-99162472D01*
X149655739Y-98930000D01*
X149048261Y-98930000D01*
X148487024Y-99162472D01*
X148170000Y-99479496D01*
X148170000Y-90955686D01*
X148769995Y-90355691D01*
X149364000Y-90355691D01*
X149364000Y-90646250D01*
X149522750Y-90805000D01*
X150622000Y-90805000D01*
X150622000Y-90005750D01*
X150876000Y-90005750D01*
X150876000Y-90805000D01*
X151975250Y-90805000D01*
X152134000Y-90646250D01*
X152134000Y-90355691D01*
X152037327Y-90122302D01*
X151858699Y-89943673D01*
X151625310Y-89847000D01*
X151034750Y-89847000D01*
X150876000Y-90005750D01*
X150622000Y-90005750D01*
X150463250Y-89847000D01*
X149872690Y-89847000D01*
X149639301Y-89943673D01*
X149460673Y-90122302D01*
X149364000Y-90355691D01*
X148769995Y-90355691D01*
X150137686Y-88988000D01*
X154531531Y-88988000D01*
X154220095Y-89196095D01*
G04 #@! TD*
M02*
